<svg width="24" height="24" viewBox="0 0 24 24" fill="none" xmlns="http://www.w3.org/2000/svg">
<path d="M7.52992 9.47C7.38774 9.33752 7.1997 9.2654 7.0054 9.26882C6.8111 9.27225 6.62571 9.35096 6.4883 9.48838C6.35088 9.62579 6.27217 9.81118 6.26874 10.0055C6.26532 10.1998 6.33744 10.3878 6.46992 10.53L11.4699 15.53C11.5396 15.5997 11.6223 15.655 11.7133 15.6927C11.8043 15.7304 11.9019 15.7498 12.0004 15.7498C12.099 15.7498 12.1965 15.7304 12.2875 15.6927C12.3786 15.655 12.4613 15.5997 12.5309 15.53L17.5309 10.53C17.6675 10.3885 17.743 10.199 17.7412 10.0023C17.7394 9.8057 17.6604 9.61763 17.5213 9.47864C17.3822 9.33965 17.194 9.26086 16.9974 9.25924C16.8007 9.25763 16.6113 9.33331 16.4699 9.47L11.9999 13.94L7.52992 9.47Z" fill="#313035"/>
</svg>
