<?xml version="1.0" encoding="utf-8"?>
<!-- Generator: Adobe Illustrator 24.0.1, SVG Export Plug-In . SVG Version: 6.00 Build 0)  -->
<svg version="1.1" id="Camada_2" xmlns="http://www.w3.org/2000/svg" xmlns:xlink="http://www.w3.org/1999/xlink" x="0px" y="0px"
	 viewBox="0 0 512 512" style="enable-background:new 0 0 512 512;" xml:space="preserve">
<style type="text/css">
	.st0{fill:#FF94AB;}
	.st1{fill:#313035;}
</style>
<g>
	<path class="st0" d="M297,288.9c4.7-41.7,25.1-69,58.9-94c34.2-25.2,76.9-34.1,118.6-24.9c-16.6,66.9-81.9,90.9-124.2,91.1
		c12.1-26,49.8-62.4,98-76c-33-4.2-67.9,13.6-87.6,29.1c-19.9,15.7-32.9,35.3-36.5,55.1l-2.1,11.5l11.6,1.6
		c22.8,3.2,59.7-0.4,94.7-19.7c27.1-14.9,61.3-44.3,70.3-99.2l1.6-9.8l-9.5-2.8c-51.6-15-105.6-5.6-148.2,25.8
		c-21,15.5-38.5,36-50.6,59.2c-4.5,8.6-8.3,17.5-11.2,26.6c-33.7-25-56.2-63.2-60.9-104.9c-4.8-42.2,8.9-83.6,37.7-115.2
		c49.7,47.8,37.8,116.4,16.8,153.1c-16.5-23.5-29.1-74.3-16.8-122.9c-20.2,26.5-22.2,65.5-18.6,90.4c3.7,25.1,14.1,46.1,29.5,59.2
		l8.9,7.6l7.2-9.2c14.2-18.2,29.6-51.9,30.3-91.9c0.6-30.9-7.7-75.2-50.8-110.5l-7.7-6.3l-7.2,6.9c-38.8,37.2-57.7,88.6-51.7,141.2
		c2.9,25.9,11.9,51.3,25.9,73.5c5.2,8.2,11,15.9,17.4,23c-38.5,16.7-82.8,17-121.3,0.3c-38.9-17-68-49.5-80.9-90.3
		c66.2-19.1,119.7,25.5,141,62c-28.6,2.5-78.9-12-114.8-46.9c12.9,30.7,45.7,52,69,61.3c23.6,9.4,47,10.8,66,4l11-3.9l-4.4-10.8
		c-8.7-21.4-30.2-51.5-64.4-72.2c-26.5-16-69-30.9-121.1-11.2l-9.3,3.5l2.4,9.6c12.8,52.2,47.9,94.3,96.5,115.4
		c23.9,10.4,50.4,15.4,76.6,14.3c9.7-0.4,19.3-1.6,28.7-3.6c0,0,12.1-2.1,23.1-6.6c0,0,11.6-4.1,19.2-8.2
		C258.1,273.5,275.9,284.9,297,288.9z"/>
	<g>
		<path class="st1" d="M99.4,345.1v72.6H87.5v-72.6H99.4z"/>
		<path class="st1" d="M156.3,362c3.6,1.9,6.4,4.7,8.4,8.4c2,3.7,3,8.1,3,13.4v34h-11.8v-32.2c0-5.2-1.3-9.1-3.9-11.9
			c-2.6-2.8-6.1-4.1-10.6-4.1c-4.5,0-8,1.4-10.6,4.1c-2.6,2.8-3.9,6.7-3.9,11.9v32.2h-11.9v-57.6H127v6.6c1.9-2.4,4.4-4.2,7.5-5.5
			c3-1.3,6.3-2,9.7-2C148.6,359.2,152.7,360.1,156.3,362z"/>
		<path class="st1" d="M207,369.9h-10.7v47.8h-12v-47.8h-6.8v-9.7h6.8v-4.1c0-6.6,1.8-11.4,5.3-14.5c3.5-3,9-4.5,16.6-4.5v9.9
			c-3.6,0-6.2,0.7-7.6,2c-1.5,1.4-2.2,3.7-2.2,7.1v4.1H207V369.9z"/>
		<path class="st1" d="M218.2,350.3c-1.5-1.5-2.2-3.3-2.2-5.4c0-2.2,0.7-4,2.2-5.4c1.5-1.5,3.3-2.2,5.4-2.2c2.1,0,3.9,0.7,5.3,2.2
			c1.5,1.5,2.2,3.3,2.2,5.4c0,2.2-0.7,4-2.2,5.4c-1.5,1.5-3.2,2.2-5.3,2.2C221.5,352.5,219.6,351.8,218.2,350.3z M229.5,360.1v57.6
			h-11.9v-57.6H229.5z"/>
		<path class="st1" d="M286.3,362c3.6,1.9,6.4,4.7,8.4,8.4c2,3.7,3,8.1,3,13.4v34H286v-32.2c0-5.2-1.3-9.1-3.9-11.9
			c-2.6-2.8-6.1-4.1-10.6-4.1c-4.5,0-8,1.4-10.6,4.1c-2.6,2.8-3.9,6.7-3.9,11.9v32.2h-11.9v-57.6H257v6.6c1.9-2.4,4.4-4.2,7.5-5.5
			c3-1.3,6.3-2,9.7-2C278.7,359.2,282.8,360.1,286.3,362z"/>
		<path class="st1" d="M313.6,350.3c-1.5-1.5-2.2-3.3-2.2-5.4c0-2.2,0.7-4,2.2-5.4c1.5-1.5,3.3-2.2,5.4-2.2c2.1,0,3.9,0.7,5.3,2.2
			c1.5,1.5,2.2,3.3,2.2,5.4c0,2.2-0.7,4-2.2,5.4c-1.5,1.5-3.2,2.2-5.3,2.2C316.8,352.5,315,351.8,313.6,350.3z M324.8,360.1v57.6
			h-11.9v-57.6H324.8z"/>
		<path class="st1" d="M354.4,369.9v31.9c0,2.2,0.5,3.7,1.5,4.6c1,0.9,2.7,1.4,5.2,1.4h7.3v9.9H359c-5.4,0-9.5-1.3-12.3-3.8
			c-2.9-2.5-4.3-6.6-4.3-12.2v-31.9h-6.8v-9.7h6.8v-14.3h12v14.3h14v9.7H354.4z"/>
		<path class="st1" d="M431.2,360.1l-35.3,84.6h-12.3l11.7-28l-22.7-56.6h13.3L402,404l16.8-43.9H431.2z"/>
	</g>
	<rect x="11.8" y="324.2" class="st0" width="488.5" height="2.4"/>
	<g>
		<path d="M149,486h-24.5l-4.9,13.2h-3.6l19-50.5h3.7l18.9,50.5h-3.6L149,486z M147.9,483.2l-11.2-30.1l-11.3,30.1H147.9z"/>
		<path d="M174.3,460.8c2.5-1.5,5.7-2.3,9.6-2.3v3.5h-1.1c-3.9,0-7.2,1.1-9.8,3.3c-2.6,2.2-3.9,5.9-3.9,10.9v23h-3.3v-40h3.3v8.2
			C170.1,464.6,171.8,462.3,174.3,460.8z"/>
		<path d="M199.1,497.3c-3-1.7-5.3-4.1-7-7.2s-2.5-6.8-2.5-10.9c0-4.1,0.9-7.7,2.6-10.9c1.7-3.1,4.1-5.5,7.1-7.1
			c3-1.6,6.4-2.5,10.1-2.5c3.7,0,7.1,0.8,10.1,2.5c3,1.6,5.3,4,7,7.1c1.7,3.1,2.5,6.7,2.5,10.9s-0.9,7.8-2.6,10.9
			c-1.7,3.1-4.1,5.5-7.1,7.2c-3,1.7-6.4,2.5-10.1,2.5C205.4,499.8,202.1,499,199.1,497.3z M217.3,494.9c2.5-1.3,4.6-3.3,6.1-5.9
			c1.5-2.6,2.3-5.9,2.3-9.8c0-3.8-0.8-7.1-2.3-9.7c-1.5-2.7-3.5-4.6-6-5.9c-2.5-1.3-5.2-2-8.1-2c-2.9,0-5.6,0.7-8.1,2
			c-2.5,1.3-4.5,3.3-6,5.9c-1.5,2.6-2.3,5.9-2.3,9.7c0,3.9,0.7,7.1,2.2,9.8c1.5,2.7,3.5,4.6,6,5.9c2.5,1.3,5.2,2,8.1,2
			C212.1,496.9,214.8,496.2,217.3,494.9z"/>
		<path d="M297.5,462.8c2.9,2.9,4.3,7.3,4.3,13v23.4h-3.2V476c0-4.8-1.1-8.4-3.4-10.9c-2.3-2.5-5.4-3.8-9.4-3.8
			c-4.1,0-7.4,1.4-9.9,4.3c-2.5,2.8-3.8,7-3.8,12.4v21.3h-3.2V476c0-4.8-1.1-8.4-3.4-10.9c-2.3-2.5-5.4-3.8-9.4-3.8
			c-4.1,0-7.4,1.4-9.9,4.3c-2.5,2.8-3.8,7-3.8,12.4v21.3H239v-40h3.3v8.7c1.1-3.1,3-5.5,5.5-7.1c2.5-1.6,5.4-2.4,8.7-2.4
			c3.6,0,6.8,0.9,9.4,2.8c2.6,1.9,4.4,4.7,5.4,8.4c0.9-3.7,2.7-6.5,5.4-8.4c2.7-1.9,5.9-2.8,9.5-2.8
			C290.9,458.4,294.6,459.9,297.5,462.8z"/>
		<path d="M314,468.4c1.6-3.1,3.9-5.5,6.8-7.1c2.9-1.7,6.2-2.5,10-2.5c4.2,0,7.8,1,10.7,3.1c2.9,2.1,5,4.7,6.2,7.9v-10.5h3.3v40
			h-3.3v-10.5c-1.2,3.2-3.3,5.9-6.2,8s-6.5,3.1-10.7,3.1c-3.7,0-7.1-0.8-10-2.5c-2.9-1.7-5.2-4.1-6.8-7.2c-1.6-3.1-2.5-6.7-2.5-10.9
			S312.4,471.5,314,468.4z M345.6,470c-1.4-2.7-3.4-4.7-5.9-6.2c-2.5-1.4-5.3-2.2-8.4-2.2c-3.2,0-6.1,0.7-8.5,2.1
			c-2.5,1.4-4.4,3.4-5.7,6.1c-1.4,2.6-2.1,5.8-2.1,9.4c0,3.6,0.7,6.8,2.1,9.4c1.4,2.7,3.3,4.7,5.8,6.1c2.5,1.4,5.3,2.1,8.5,2.1
			c3.1,0,5.9-0.7,8.4-2.2c2.5-1.4,4.5-3.5,5.9-6.2c1.4-2.7,2.1-5.8,2.1-9.3C347.8,475.7,347,472.6,345.6,470z"/>
		<path d="M365.5,496.9c-2.8-2-4.4-4.8-4.7-8.4h3.4c0.2,2.6,1.4,4.7,3.6,6.2c2.1,1.5,5,2.3,8.7,2.3c3,0,5.5-0.8,7.3-2.3
			c1.8-1.5,2.7-3.4,2.7-5.7c0-1.6-0.5-2.9-1.4-3.9c-1-1-2.1-1.8-3.6-2.3c-1.4-0.5-3.4-1.1-5.8-1.8c-2.9-0.8-5.3-1.6-7.1-2.3
			c-1.8-0.8-3.4-1.9-4.6-3.4c-1.3-1.5-1.9-3.6-1.9-6.1c0-1.9,0.6-3.6,1.7-5.2c1.1-1.6,2.7-2.9,4.7-3.8c2-0.9,4.3-1.4,6.8-1.4
			c4.2,0,7.5,1,10.1,3.1s4,5,4.2,8.6h-3.3c-0.1-2.7-1.2-4.8-3.1-6.5c-1.9-1.7-4.6-2.5-7.9-2.5c-2.8,0-5.2,0.7-7.1,2.2
			c-1.9,1.5-2.8,3.3-2.8,5.4c0,1.9,0.5,3.4,1.6,4.5c1.1,1.2,2.4,2,3.9,2.7s3.6,1.3,6.1,2c2.8,0.7,5,1.5,6.7,2.2
			c1.7,0.7,3.1,1.7,4.3,3.1c1.2,1.4,1.8,3.2,1.8,5.4c0,2.1-0.6,3.9-1.7,5.6c-1.1,1.7-2.7,3-4.7,3.9c-2,0.9-4.3,1.4-6.8,1.4
			C372,499.8,368.4,498.8,365.5,496.9z"/>
	</g>
</g>
</svg>
