<svg width="510" height="521" viewBox="0 0 510 521" fill="none" xmlns="http://www.w3.org/2000/svg">
<g clip-path="url(#clip0)">
<path d="M2.47473 52.2737C2.47473 58.8296 2.47473 65.4289 2.47473 71.9848C4.12457 68.0339 5.86123 64.1264 7.72815 60.2623C12.9816 49.5384 19.5375 39.596 25.4422 29.2628C30.2614 20.9268 34.9504 10.0727 34.3426 0H26.5276C23.3147 5.21 19.0599 9.6385 15.8036 14.8485C8.68332 26.1368 5.29682 39.2487 2.47473 52.2737Z" fill="#FAFAFA"/>
<path d="M4.90609 0H2.30109C2.3445 1.38933 2.43134 2.77867 2.51817 4.168C3.25625 2.77867 4.08117 1.38933 4.90609 0Z" fill="#FAFAFA"/>
<path d="M2.47473 34.3426C5.5139 24.5738 9.59507 15.2393 15.8036 6.99008C17.5837 4.689 19.4072 2.38792 21.0571 0H10.0292C7.20715 4.73242 4.34165 9.42142 2.47473 14.6314C2.47473 21.1873 2.47473 27.7867 2.47473 34.3426Z" fill="#FAFAFA"/>
<path d="M89.3081 52.2737C89.3081 58.8296 89.3081 65.4289 89.3081 71.9848C90.9579 68.0339 92.6946 64.1264 94.5615 60.2623C99.8149 49.5384 106.371 39.596 112.276 29.2628C117.051 20.9268 121.74 10.0727 121.133 0H113.318C110.105 5.21 105.85 9.6385 102.594 14.8485C95.5167 26.1368 92.1302 39.2487 89.3081 52.2737Z" fill="#FAFAFA"/>
<path d="M89.3081 34.3426C92.3473 24.5738 96.4284 15.2393 102.637 6.99008C104.417 4.64558 106.241 2.38792 107.89 0H96.8626C94.0405 4.73242 91.175 9.42142 89.3081 14.6314C89.3081 21.1873 89.3081 27.7867 89.3081 34.3426Z" fill="#FAFAFA"/>
<path d="M91.7394 0H89.1345C89.1779 1.38933 89.2647 2.77867 89.3515 4.168C90.0896 2.77867 90.9145 1.38933 91.7394 0Z" fill="#FAFAFA"/>
<path d="M84.4889 0H81.8839C82.7088 1.38933 83.4903 2.77867 84.2718 4.168C84.3586 2.77867 84.4454 1.38933 84.4889 0Z" fill="#FAFAFA"/>
<path d="M86.8333 78.15C86.7899 78.15 86.7899 78.15 86.7899 78.15C86.7899 78.1934 86.7899 78.1934 86.8333 78.2369C86.7899 78.1934 86.8333 78.1934 86.8333 78.15Z" fill="#FAFAFA"/>
<path d="M84.3151 34.3426C84.3151 27.7867 84.3151 21.1873 84.3151 14.6314C82.4482 9.42142 79.5827 4.73242 76.7606 0H65.7328C67.3826 2.38792 69.2061 4.689 70.9862 6.99008C77.1948 15.2393 81.276 24.5738 84.3151 34.3426Z" fill="#FAFAFA"/>
<path d="M53.0552 9.24775C54.6182 17.5403 58.6993 25.008 62.9108 32.0849C65.9933 37.3383 69.2062 42.5049 72.2888 47.7583C76.8475 55.5733 80.755 63.7357 84.2718 72.0717C84.2718 65.4723 84.2718 58.873 84.2718 52.2737C82.7088 45.0665 80.9721 37.8593 78.5408 30.9127C76.2831 24.4002 73.3308 18.1482 69.4233 12.5474C66.4709 8.29258 62.9108 4.4285 60.2189 0H52.5342C52.3171 3.08258 52.4908 6.252 53.0552 9.24775Z" fill="#FAFAFA"/>
<path d="M139.889 9.24775C141.452 17.5403 145.533 25.008 149.744 32.0849C152.827 37.3383 156.04 42.5049 159.122 47.7583C163.681 55.5733 167.588 63.7357 171.105 72.0717C171.105 65.4723 171.105 58.873 171.105 52.2737C169.542 45.0665 167.805 37.8593 165.374 30.9127C163.116 24.4002 160.164 18.1482 156.257 12.5474C153.304 8.29258 149.744 4.4285 147.052 0H139.368C139.15 3.08258 139.324 6.252 139.889 9.24775Z" fill="#FAFAFA"/>
<path d="M171.148 34.3426C171.148 27.7867 171.148 21.1873 171.148 14.6314C169.282 9.42142 166.416 4.73242 163.594 0H152.566C154.216 2.38792 156.039 4.689 157.82 6.99008C164.028 15.2393 168.109 24.5738 171.148 34.3426Z" fill="#FAFAFA"/>
<path d="M171.322 0H168.717C169.542 1.38933 170.324 2.77867 171.105 4.168C171.192 2.77867 171.279 1.38933 171.322 0Z" fill="#FAFAFA"/>
<path d="M178.573 0H175.968C176.011 1.38933 176.098 2.77867 176.185 4.168C176.923 2.77867 177.748 1.38933 178.573 0Z" fill="#FAFAFA"/>
<path d="M176.141 52.2737C176.141 58.8296 176.141 65.4289 176.141 71.9848C177.791 68.0339 179.528 64.1264 181.395 60.2623C186.648 49.5384 193.204 39.596 199.109 29.2628C203.885 20.9268 208.574 10.0727 207.966 0H200.151C196.938 5.21 192.683 9.6385 189.427 14.8485C182.35 26.1368 178.964 39.2487 176.141 52.2737Z" fill="#FAFAFA"/>
<path d="M173.667 78.15C173.623 78.15 173.623 78.15 173.623 78.15C173.623 78.1934 173.623 78.1934 173.667 78.2369C173.623 78.1934 173.667 78.1934 173.667 78.15Z" fill="#FAFAFA"/>
<path d="M176.141 34.3426C179.181 24.5738 183.262 15.2393 189.47 6.99008C191.25 4.64558 193.074 2.38792 194.724 0H183.696C180.874 4.73242 178.008 9.42142 176.141 14.6314C176.141 21.1873 176.141 27.7867 176.141 34.3426Z" fill="#FAFAFA"/>
<path d="M262.975 34.3426C266.014 24.5738 270.095 15.2393 276.304 6.99008C278.084 4.64558 279.907 2.38792 281.557 0H270.529C267.707 4.73242 264.842 9.42142 262.975 14.6314C262.975 21.1873 262.975 27.7867 262.975 34.3426Z" fill="#FAFAFA"/>
<path d="M262.975 52.2737C262.975 58.8296 262.975 65.4289 262.975 71.9848C264.625 68.0339 266.361 64.1264 268.228 60.2623C273.482 49.5384 280.037 39.596 285.942 29.2628C290.718 20.9268 295.407 10.0727 294.799 0H286.984C283.771 5.21 279.516 9.6385 276.26 14.8485C269.183 26.1368 265.797 39.2487 262.975 52.2737Z" fill="#FAFAFA"/>
<path d="M265.406 0H262.801C262.845 1.38933 262.931 2.77867 263.018 4.168C263.756 2.77867 264.581 1.38933 265.406 0Z" fill="#FAFAFA"/>
<path d="M258.155 0H255.55C256.375 1.38933 257.157 2.77867 257.938 4.168C258.025 2.77867 258.112 1.38933 258.155 0Z" fill="#FAFAFA"/>
<path d="M257.982 34.3426C257.982 27.7867 257.982 21.1873 257.982 14.6314C256.115 9.42142 253.249 4.73242 250.427 0H239.4C241.049 2.38792 242.873 4.689 244.653 6.99008C250.862 15.2393 254.943 24.5738 257.982 34.3426Z" fill="#FAFAFA"/>
<path d="M260.5 78.15C260.457 78.15 260.457 78.15 260.457 78.15C260.457 78.1934 260.457 78.1934 260.5 78.2369C260.457 78.1934 260.5 78.1934 260.5 78.15Z" fill="#FAFAFA"/>
<path d="M226.722 9.24775C228.285 17.5403 232.366 25.008 236.577 32.0849C239.66 37.3383 242.873 42.5049 245.955 47.7583C250.514 55.5733 254.422 63.7357 257.938 72.0717C257.938 65.4723 257.938 58.873 257.938 52.2737C256.375 45.0665 254.639 37.8593 252.207 30.9127C249.95 24.4002 246.997 18.1482 243.09 12.5474C240.138 8.29258 236.577 4.4285 233.886 0H226.201C225.984 3.08258 226.157 6.252 226.722 9.24775Z" fill="#FAFAFA"/>
<path d="M344.815 34.3426C344.815 27.7867 344.815 21.1873 344.815 14.6314C342.948 9.42142 340.083 4.73242 337.261 0H326.233C327.883 2.38792 329.706 4.689 331.486 6.99008C337.695 15.2393 341.776 24.5738 344.815 34.3426Z" fill="#FAFAFA"/>
<path d="M344.989 0H342.384C343.209 1.38933 343.99 2.77867 344.772 4.168C344.859 2.77867 344.945 1.38933 344.989 0Z" fill="#FAFAFA"/>
<path d="M347.333 78.15C347.29 78.15 347.29 78.15 347.29 78.15C347.29 78.1934 347.29 78.1934 347.333 78.2369C347.29 78.1934 347.333 78.1934 347.333 78.15Z" fill="#FAFAFA"/>
<path d="M313.555 9.24775C315.118 17.5403 319.199 25.008 323.411 32.0849C326.493 37.3383 329.706 42.5049 332.789 47.7583C337.347 55.5733 341.255 63.7357 344.772 72.0717C344.772 65.4723 344.772 58.873 344.772 52.2737C343.209 45.0665 341.472 37.8593 339.041 30.9127C336.783 24.4002 333.831 18.1482 329.923 12.5474C326.971 8.29258 323.411 4.4285 320.719 0H313.034C312.817 3.08258 312.991 6.252 313.555 9.24775Z" fill="#FAFAFA"/>
<path d="M352.239 0H349.634C349.678 1.38933 349.765 2.77867 349.851 4.168C350.59 2.77867 351.414 1.38933 352.239 0Z" fill="#FAFAFA"/>
<path d="M349.808 52.2737C349.808 58.8296 349.808 65.4289 349.808 71.9848C351.458 68.0339 353.195 64.1264 355.062 60.2623C360.315 49.5384 366.871 39.596 372.776 29.2628C377.551 20.9268 382.24 10.0727 381.633 0H373.818C370.605 5.21 366.35 9.6385 363.094 14.8485C356.017 26.1368 352.63 39.2487 349.808 52.2737Z" fill="#FAFAFA"/>
<path d="M349.808 34.3426C352.847 24.5738 356.928 15.2393 363.137 6.99008C364.917 4.64558 366.741 2.38792 368.39 0H357.363C354.541 4.73242 351.675 9.42142 349.808 14.6314C349.808 21.1873 349.808 27.7867 349.808 34.3426Z" fill="#FAFAFA"/>
<path d="M436.641 52.2737C436.641 58.8296 436.641 65.4289 436.641 71.9848C438.291 68.0339 440.028 64.1264 441.895 60.2623C447.148 49.5384 453.704 39.596 459.609 29.2628C464.385 20.9268 469.074 10.0727 468.466 0H460.651C457.438 5.21 453.183 9.6385 449.927 14.8485C442.85 26.1368 439.463 39.2487 436.641 52.2737Z" fill="#FAFAFA"/>
<path d="M400.389 9.24775C401.952 17.5403 406.033 25.008 410.244 32.0849C413.327 37.3383 416.54 42.5049 419.622 47.7583C424.181 55.5733 428.088 63.7357 431.605 72.0717C431.605 65.4723 431.605 58.873 431.605 52.2737C430.042 45.0665 428.305 37.8593 425.874 30.9127C423.616 24.4002 420.664 18.1482 416.757 12.5474C413.804 8.29258 410.244 4.4285 407.552 0H399.868C399.65 3.08258 399.824 6.252 400.389 9.24775Z" fill="#FAFAFA"/>
<path d="M439.073 0H436.468C436.511 1.38933 436.598 2.77867 436.685 4.168C437.423 2.77867 438.248 1.38933 439.073 0Z" fill="#FAFAFA"/>
<path d="M431.822 0H429.217C430.042 1.38933 430.824 2.77867 431.605 4.168C431.692 2.77867 431.779 1.38933 431.822 0Z" fill="#FAFAFA"/>
<path d="M436.641 34.3426C439.681 24.5738 443.762 15.2393 449.97 6.99008C451.75 4.64558 453.574 2.38792 455.224 0H444.196C441.374 4.73242 438.508 9.42142 436.641 14.6314C436.641 21.1873 436.641 27.7867 436.641 34.3426Z" fill="#FAFAFA"/>
<path d="M431.649 34.3426C431.649 27.7867 431.649 21.1873 431.649 14.6314C429.782 9.42142 426.916 4.73242 424.094 0H413.066C414.716 2.38792 416.539 4.689 418.32 6.99008C424.528 15.2393 428.609 24.5738 431.649 34.3426Z" fill="#FAFAFA"/>
<path d="M434.167 78.15C434.123 78.15 434.123 78.15 434.123 78.15C434.123 78.1934 434.123 78.1934 434.167 78.2369C434.123 78.1934 434.167 78.1934 434.167 78.15Z" fill="#FAFAFA"/>
<path d="M518.482 34.3426C518.482 27.7867 518.482 21.1873 518.482 14.6314C516.615 9.42142 513.749 4.73242 510.927 0H499.9C501.549 2.38792 503.373 4.689 505.153 6.99008C511.362 15.2393 515.443 24.5738 518.482 34.3426Z" fill="#FAFAFA"/>
<path d="M487.222 9.24775C488.785 17.5403 492.866 25.008 497.077 32.0849C500.16 37.3383 503.373 42.5049 506.455 47.7583C511.014 55.5733 514.922 63.7357 518.438 72.0717C518.438 65.4723 518.438 58.873 518.438 52.2737C516.875 45.0665 515.139 37.8593 512.707 30.9127C510.45 24.4002 507.497 18.1482 503.59 12.5474C500.638 8.29258 497.077 4.4285 494.386 0H486.701C486.484 3.08258 486.657 6.252 487.222 9.24775Z" fill="#FAFAFA"/>
<path d="M501.463 402.082C498.38 396.828 495.167 391.662 492.085 386.408C487.526 378.593 483.618 370.431 480.102 362.095C480.102 368.694 480.102 375.294 480.102 381.893C481.665 389.1 483.401 396.307 485.833 403.254C488.09 409.766 491.043 416.018 494.95 421.619C498.684 427.09 503.46 431.866 506.195 437.987C507.28 440.462 507.975 442.98 508.366 445.498C512.056 439.507 512.664 431.822 511.362 424.919C509.755 416.626 505.674 409.159 501.463 402.082Z" fill="#FAFAFA"/>
<path d="M469.465 490.304C469.291 499.465 473.242 507.801 477.583 515.573C481.925 507.801 485.876 499.465 485.702 490.304C485.529 481.317 481.274 472.764 477.583 464.602C473.893 472.764 469.638 481.317 469.465 490.304Z" fill="#FAFAFA"/>
<path d="M493.474 427.177C487.222 418.927 483.141 409.593 480.145 399.824C480.145 406.38 480.145 412.979 480.145 419.535C482.359 425.744 485.963 431.171 489.262 436.815C492.432 442.242 495.08 447.93 496.383 454.182C497.338 458.827 497.642 463.56 497.295 468.205C501.723 462.691 504.545 455.918 504.285 448.624C503.894 439.898 498.38 433.689 493.474 427.177Z" fill="#FAFAFA"/>
<path d="M475.326 434.731C475.239 433.168 475.152 431.562 475.065 429.999C470.897 437.553 465.861 444.63 463.647 453.183C461.128 463.126 462.04 473.719 465.861 483.141C467.598 475.022 471.592 467.294 474.892 459.782C475.456 451.446 475.152 443.067 475.326 434.731Z" fill="#FAFAFA"/>
<path d="M475.109 381.893C475.109 375.337 475.109 368.738 475.109 362.182C473.459 366.133 471.722 370.04 469.855 373.904C464.602 384.628 458.046 394.571 452.141 404.904C445.455 416.583 438.899 433.168 446.931 445.629C447.409 442.155 448.538 438.812 450.231 435.686C453.487 429.782 458.263 425.006 461.823 419.362C468.9 408.03 472.286 394.918 475.109 381.893Z" fill="#FAFAFA"/>
<path d="M475.108 419.535C475.108 412.979 475.108 406.38 475.108 399.824C472.069 409.593 467.988 418.927 461.78 427.177C456.873 433.689 451.36 439.898 451.012 448.624C450.708 455.962 453.574 462.691 458.002 468.205C457.698 463.516 457.959 458.784 458.914 454.182C460.173 447.93 462.865 442.242 466.034 436.815C469.291 431.171 472.894 425.744 475.108 419.535Z" fill="#FAFAFA"/>
<path d="M480.145 429.999C480.058 431.562 479.971 433.168 479.885 434.731C480.058 443.067 479.754 451.446 480.275 459.739C483.575 467.25 487.569 474.978 489.306 483.097C493.127 473.719 494.082 463.082 491.52 453.14C489.349 444.673 484.313 437.553 480.145 429.999Z" fill="#FAFAFA"/>
<path d="M477.627 356.017C477.67 355.973 477.627 355.973 477.627 355.93C477.627 355.973 477.583 355.973 477.627 356.017C477.583 356.017 477.583 356.017 477.627 356.017Z" fill="#FAFAFA"/>
<path d="M390.793 356.017C390.837 355.973 390.793 355.973 390.793 355.93C390.793 355.973 390.75 355.973 390.793 356.017C390.75 356.017 390.75 356.017 390.793 356.017Z" fill="#FAFAFA"/>
<path d="M382.631 490.304C382.457 499.465 386.408 507.801 390.75 515.573C395.092 507.801 399.043 499.465 398.869 490.304C398.695 481.317 394.44 472.764 390.75 464.602C387.06 472.764 382.805 481.317 382.631 490.304Z" fill="#FAFAFA"/>
<path d="M414.629 402.082C411.547 396.828 408.334 391.662 405.251 386.408C400.692 378.593 396.785 370.431 393.268 362.095C393.268 368.694 393.268 375.294 393.268 381.893C394.831 389.1 396.568 396.307 398.999 403.254C401.257 409.766 404.209 416.018 408.117 421.619C411.851 427.09 416.626 431.866 419.362 437.987C420.447 440.462 421.142 442.98 421.532 445.498C425.223 439.507 425.831 431.822 424.528 424.919C422.922 416.626 418.841 409.159 414.629 402.082Z" fill="#FAFAFA"/>
<path d="M388.275 419.535C388.275 412.979 388.275 406.38 388.275 399.824C385.236 409.593 381.155 418.927 374.946 427.177C370.04 433.689 364.526 439.898 364.179 448.624C363.875 455.962 366.741 462.691 371.169 468.205C370.865 463.516 371.126 458.784 372.081 454.182C373.34 447.93 376.032 442.242 379.201 436.815C382.457 431.171 386.061 425.744 388.275 419.535Z" fill="#FAFAFA"/>
<path d="M388.492 434.731C388.406 433.168 388.319 431.562 388.232 429.999C384.064 437.553 379.028 444.63 376.813 453.183C374.295 463.126 375.207 473.719 379.028 483.141C380.764 475.022 384.759 467.294 388.058 459.782C388.623 451.446 388.319 443.067 388.492 434.731Z" fill="#FAFAFA"/>
<path d="M388.275 381.893C388.275 375.337 388.275 368.738 388.275 362.182C386.625 366.133 384.889 370.04 383.022 373.904C377.768 384.628 371.213 394.571 365.308 404.904C358.622 416.583 352.066 433.168 360.098 445.629C360.575 442.155 361.704 438.812 363.398 435.686C366.654 429.782 371.43 425.006 374.99 419.362C382.067 408.03 385.453 394.918 388.275 381.893Z" fill="#FAFAFA"/>
<path d="M393.312 429.999C393.225 431.562 393.138 433.168 393.051 434.731C393.225 443.067 392.921 451.446 393.442 459.739C396.741 467.25 400.736 474.978 402.472 483.097C406.293 473.719 407.248 463.082 404.687 453.14C402.516 444.673 397.48 437.553 393.312 429.999Z" fill="#FAFAFA"/>
<path d="M406.64 427.177C400.388 418.927 396.307 409.593 393.312 399.824C393.312 406.38 393.312 412.979 393.312 419.535C395.526 425.744 399.129 431.171 402.429 436.815C405.598 442.242 408.247 447.93 409.549 454.182C410.505 458.827 410.808 463.56 410.461 468.205C414.89 462.691 417.712 455.918 417.451 448.624C417.06 439.898 411.547 433.689 406.64 427.177Z" fill="#FAFAFA"/>
<path d="M301.659 434.731C301.572 433.168 301.485 431.562 301.399 429.999C297.231 437.553 292.194 444.63 289.98 453.183C287.462 463.126 288.374 473.719 292.194 483.141C293.931 475.022 297.925 467.294 301.225 459.782C301.789 451.446 301.485 443.067 301.659 434.731Z" fill="#FAFAFA"/>
<path d="M301.442 419.535C301.442 412.979 301.442 406.38 301.442 399.824C298.403 409.593 294.322 418.927 288.113 427.177C283.207 433.689 277.693 439.898 277.346 448.624C277.042 455.962 279.907 462.691 284.336 468.205C284.032 463.516 284.292 458.784 285.247 454.182C286.507 447.93 289.198 442.242 292.368 436.815C295.624 431.171 299.228 425.744 301.442 419.535Z" fill="#FAFAFA"/>
<path d="M303.96 356.017C304.003 355.973 303.96 355.973 303.96 355.93C303.96 355.973 303.917 355.973 303.96 356.017C303.917 356.017 303.917 356.017 303.96 356.017Z" fill="#FAFAFA"/>
<path d="M306.478 429.999C306.391 431.562 306.305 433.168 306.218 434.731C306.391 443.067 306.087 451.446 306.608 459.739C309.908 467.25 313.902 474.978 315.639 483.097C319.46 473.719 320.415 463.082 317.853 453.14C315.683 444.673 310.646 437.553 306.478 429.999Z" fill="#FAFAFA"/>
<path d="M319.807 427.177C313.555 418.927 309.474 409.593 306.478 399.824C306.478 406.38 306.478 412.979 306.478 419.535C308.693 425.744 312.296 431.171 315.596 436.815C318.765 442.242 321.414 447.93 322.716 454.182C323.671 458.827 323.975 463.56 323.628 468.205C328.056 462.691 330.878 455.918 330.618 448.624C330.227 439.898 324.713 433.689 319.807 427.177Z" fill="#FAFAFA"/>
<path d="M301.442 381.893C301.442 375.337 301.442 368.738 301.442 362.182C299.792 366.133 298.055 370.04 296.189 373.904C290.935 384.628 284.379 394.571 278.475 404.904C271.788 416.583 265.232 433.168 273.265 445.629C273.742 442.155 274.871 438.812 276.564 435.686C279.82 429.782 284.596 425.006 288.156 419.362C295.233 408.03 298.62 394.918 301.442 381.893Z" fill="#FAFAFA"/>
<path d="M327.796 402.082C324.713 396.828 321.5 391.662 318.418 386.408C313.859 378.593 309.952 370.431 306.435 362.095C306.435 368.694 306.435 375.294 306.435 381.893C307.998 389.1 309.734 396.307 312.166 403.254C314.423 409.766 317.376 416.018 321.283 421.619C325.017 427.09 329.793 431.866 332.528 437.987C333.614 440.462 334.308 442.98 334.699 445.498C338.389 439.507 338.997 431.822 337.695 424.919C336.088 416.626 332.007 409.159 327.796 402.082Z" fill="#FAFAFA"/>
<path d="M295.798 490.304C295.624 499.465 299.575 507.801 303.917 515.573C308.258 507.801 312.209 499.465 312.036 490.304C311.862 481.317 307.607 472.764 303.917 464.602C300.226 472.764 295.971 481.317 295.798 490.304Z" fill="#FAFAFA"/>
<path d="M232.974 427.177C226.722 418.927 222.641 409.593 219.645 399.824C219.645 406.38 219.645 412.979 219.645 419.535C221.859 425.744 225.463 431.171 228.762 436.815C231.932 442.242 234.58 447.93 235.883 454.182C236.838 458.827 237.142 463.56 236.794 468.205C241.223 462.691 244.045 455.918 243.785 448.624C243.394 439.898 237.88 433.689 232.974 427.177Z" fill="#FAFAFA"/>
<path d="M219.645 429.999C219.558 431.562 219.471 433.168 219.384 434.731C219.558 443.067 219.254 451.446 219.775 459.739C223.075 467.25 227.069 474.978 228.806 483.097C232.626 473.719 233.582 463.082 231.02 453.14C228.849 444.673 223.813 437.553 219.645 429.999Z" fill="#FAFAFA"/>
<path d="M214.609 419.535C214.609 412.979 214.609 406.38 214.609 399.824C211.569 409.593 207.488 418.927 201.28 427.177C196.374 433.689 190.86 439.898 190.512 448.624C190.208 455.962 193.074 462.691 197.502 468.205C197.198 463.516 197.459 458.784 198.414 454.182C199.673 447.93 202.365 442.242 205.534 436.815C208.791 431.171 212.394 425.744 214.609 419.535Z" fill="#FAFAFA"/>
<path d="M217.127 356.017C217.17 355.973 217.127 355.973 217.127 355.93C217.127 355.973 217.083 355.973 217.127 356.017C217.083 356.017 217.083 356.017 217.127 356.017Z" fill="#FAFAFA"/>
<path d="M214.609 381.893C214.609 375.337 214.609 368.738 214.609 362.182C212.959 366.133 211.222 370.04 209.355 373.904C204.102 384.628 197.546 394.571 191.641 404.904C184.955 416.583 178.399 433.168 186.431 445.629C186.909 442.155 188.038 438.812 189.731 435.686C192.987 429.782 197.763 425.006 201.323 419.362C208.4 408.03 211.786 394.918 214.609 381.893Z" fill="#FAFAFA"/>
<path d="M240.962 402.082C237.88 396.828 234.667 391.662 231.585 386.408C227.026 378.593 223.118 370.431 219.602 362.095C219.602 368.694 219.602 375.294 219.602 381.893C221.165 389.1 222.901 396.307 225.333 403.254C227.59 409.766 230.543 416.018 234.45 421.619C238.184 427.09 242.96 431.866 245.695 437.987C246.78 440.462 247.475 442.98 247.866 445.498C251.556 439.507 252.164 431.822 250.861 424.919C249.255 416.626 245.174 409.159 240.962 402.082Z" fill="#FAFAFA"/>
<path d="M208.964 490.304C208.791 499.465 212.742 507.801 217.083 515.573C221.425 507.801 225.376 499.465 225.202 490.304C225.029 481.317 220.774 472.764 217.083 464.602C213.393 472.764 209.138 481.317 208.964 490.304Z" fill="#FAFAFA"/>
<path d="M214.826 434.731C214.739 433.168 214.652 431.562 214.565 429.999C210.397 437.553 205.361 444.63 203.147 453.183C200.628 463.126 201.54 473.719 205.361 483.141C207.098 475.022 211.092 467.294 214.391 459.782C214.956 451.446 214.652 443.067 214.826 434.731Z" fill="#FAFAFA"/>
<path d="M130.293 356.017C130.337 355.973 130.293 355.973 130.293 355.93C130.293 355.973 130.25 355.973 130.293 356.017C130.25 356.017 130.25 356.017 130.293 356.017Z" fill="#FAFAFA"/>
<path d="M127.775 381.893C127.775 375.337 127.775 368.738 127.775 362.182C126.125 366.133 124.389 370.04 122.522 373.904C117.268 384.628 110.712 394.571 104.808 404.904C98.1216 416.583 91.5657 433.168 99.5978 445.629C100.075 442.155 101.204 438.812 102.897 435.686C106.154 429.782 110.93 425.006 114.49 419.362C121.567 408.03 124.953 394.918 127.775 381.893Z" fill="#FAFAFA"/>
<path d="M127.775 419.535C127.775 412.979 127.775 406.38 127.775 399.824C124.736 409.593 120.655 418.927 114.446 427.177C109.54 433.689 104.026 439.898 103.679 448.624C103.375 455.962 106.241 462.691 110.669 468.205C110.365 463.516 110.626 458.784 111.581 454.182C112.84 447.93 115.532 442.242 118.701 436.815C121.957 431.171 125.561 425.744 127.775 419.535Z" fill="#FAFAFA"/>
<path d="M132.812 429.999C132.725 431.562 132.638 433.168 132.551 434.731C132.725 443.067 132.421 451.446 132.942 459.739C136.242 467.25 140.236 474.978 141.973 483.097C145.793 473.719 146.748 463.082 144.187 453.14C142.016 444.673 136.98 437.553 132.812 429.999Z" fill="#FAFAFA"/>
<path d="M154.129 402.082C151.047 396.828 147.834 391.662 144.751 386.408C140.192 378.593 136.285 370.431 132.768 362.095C132.768 368.694 132.768 375.294 132.768 381.893C134.331 389.1 136.068 396.307 138.499 403.254C140.757 409.766 143.709 416.018 147.617 421.619C151.351 427.09 156.126 431.866 158.862 437.987C159.947 440.462 160.642 442.98 161.032 445.498C164.723 439.507 165.331 431.822 164.028 424.919C162.422 416.626 158.341 409.159 154.129 402.082Z" fill="#FAFAFA"/>
<path d="M127.992 434.731C127.906 433.168 127.819 431.562 127.732 429.999C123.564 437.553 118.528 444.63 116.313 453.183C113.795 463.126 114.707 473.719 118.528 483.141C120.264 475.022 124.259 467.294 127.558 459.782C128.123 451.446 127.819 443.067 127.992 434.731Z" fill="#FAFAFA"/>
<path d="M122.131 490.304C121.957 499.465 125.908 507.801 130.25 515.573C134.592 507.801 138.543 499.465 138.369 490.304C138.195 481.317 133.94 472.764 130.25 464.602C126.56 472.764 122.305 481.317 122.131 490.304Z" fill="#FAFAFA"/>
<path d="M146.14 427.177C139.888 418.927 135.807 409.593 132.812 399.824C132.812 406.38 132.812 412.979 132.812 419.535C135.026 425.744 138.629 431.171 141.929 436.815C145.098 442.242 147.747 447.93 149.049 454.182C150.005 458.827 150.308 463.56 149.961 468.205C154.39 462.691 157.212 455.918 156.951 448.624C156.56 439.898 151.047 433.689 146.14 427.177Z" fill="#FAFAFA"/>
<path d="M59.3071 427.177C53.0551 418.927 48.974 409.593 45.9782 399.824C45.9782 406.38 45.9782 412.979 45.9782 419.535C48.1925 425.744 51.796 431.171 55.0957 436.815C58.2651 442.242 60.9135 447.93 62.216 454.182C63.1712 458.827 63.4751 463.56 63.1278 468.205C67.5563 462.691 70.3784 455.918 70.1179 448.624C69.7271 439.898 64.2132 433.689 59.3071 427.177Z" fill="#FAFAFA"/>
<path d="M67.2958 402.082C64.2132 396.828 61.0004 391.662 57.9178 386.408C53.3591 378.593 49.4516 370.431 45.9348 362.095C45.9348 368.694 45.9348 375.294 45.9348 381.893C47.4978 389.1 49.2345 396.307 51.6658 403.254C53.9235 409.766 56.8758 416.018 60.7833 421.619C64.5172 427.09 69.293 431.866 72.0282 437.987C73.1137 440.462 73.8083 442.98 74.1991 445.498C77.8895 439.507 78.4973 431.822 77.1948 424.919C75.5884 416.626 71.5072 409.159 67.2958 402.082Z" fill="#FAFAFA"/>
<path d="M40.9419 381.893C40.9419 375.337 40.9419 368.738 40.9419 362.182C39.2921 366.133 37.5554 370.04 35.6885 373.904C30.4351 384.628 23.8792 394.571 17.9745 404.904C11.2883 416.583 4.7324 433.168 12.7645 445.629C13.2421 442.155 14.3709 438.812 16.0642 435.686C19.3204 429.782 24.0962 425.006 27.6564 419.362C34.7333 408.03 38.1198 394.918 40.9419 381.893Z" fill="#FAFAFA"/>
<path d="M40.9419 419.535C40.9419 412.979 40.9419 406.38 40.9419 399.824C37.9027 409.593 33.8216 418.927 27.613 427.177C22.7069 433.689 17.193 439.898 16.8456 448.624C16.5417 455.962 19.4072 462.691 23.8357 468.205C23.5318 463.516 23.7923 458.784 24.7475 454.182C26.0066 447.93 28.6984 442.242 31.8678 436.815C35.1241 431.171 38.7276 425.744 40.9419 419.535Z" fill="#FAFAFA"/>
<path d="M35.2978 490.304C35.1241 499.465 39.075 507.801 43.4167 515.573C47.7583 507.801 51.7093 499.465 51.5356 490.304C51.3619 481.317 47.1071 472.764 43.4167 464.602C39.7263 472.764 35.4714 481.317 35.2978 490.304Z" fill="#FAFAFA"/>
<path d="M45.9783 429.999C45.8914 431.562 45.8046 433.168 45.7178 434.731C45.8914 443.067 45.5875 451.446 46.1085 459.739C49.4082 467.25 53.4025 474.978 55.1392 483.097C58.9599 473.719 59.915 463.082 57.3534 453.14C55.1826 444.673 50.1463 437.553 45.9783 429.999Z" fill="#FAFAFA"/>
<path d="M41.159 434.731C41.0722 433.168 40.9853 431.562 40.8985 429.999C36.7305 437.553 31.6942 444.63 29.4799 453.183C26.9617 463.126 27.8735 473.719 31.6942 483.141C33.4308 475.022 37.4252 467.294 40.7248 459.782C41.2892 451.446 40.9853 443.067 41.159 434.731Z" fill="#FAFAFA"/>
<path d="M43.4601 356.017C43.5035 355.973 43.4601 355.973 43.4601 355.93C43.4601 355.973 43.4166 355.973 43.4601 356.017C43.4166 356.017 43.4166 356.017 43.4601 356.017Z" fill="#FAFAFA"/>
<path d="M11.5922 171.018C8.33598 176.662 4.68898 182.09 2.47473 188.298C2.47473 194.854 2.47473 201.453 2.47473 208.009C5.5139 198.241 9.59507 188.906 15.8036 180.657C20.7097 174.144 26.2236 167.936 26.571 159.209C26.8749 151.872 24.0094 145.142 19.5809 139.628C19.8848 144.317 19.6243 149.049 18.6691 153.652C17.4101 159.904 14.7616 165.591 11.5922 171.018Z" fill="#FAFAFA"/>
<path d="M30.6956 162.248C30.218 165.721 29.0892 169.065 27.3959 172.191C24.1397 178.095 19.3639 182.871 15.8037 188.515C8.72677 199.804 5.29685 212.959 2.51819 225.984C2.51819 232.54 2.51819 239.139 2.51819 245.695C4.16802 241.744 5.90469 237.837 7.7716 233.972C13.025 223.249 19.5809 213.306 25.4856 202.973C32.1718 191.294 38.6843 174.709 30.6956 162.248Z" fill="#FAFAFA"/>
<path d="M13.8933 154.65C16.4115 144.708 15.4997 134.114 11.679 124.693C9.94238 132.812 5.94805 140.54 2.64838 148.051C2.12738 156.343 2.4313 164.723 2.25763 173.059C2.34446 174.622 2.4313 176.228 2.51813 177.791C6.68613 170.28 11.7225 163.16 13.8933 154.65Z" fill="#FAFAFA"/>
<path d="M0 92.3038V143.188C3.73383 135.026 7.94525 126.516 8.11892 117.529C8.29258 108.411 4.34167 100.075 0 92.3038Z" fill="#FAFAFA"/>
<path d="M89.4818 148.094C88.9608 156.387 89.2647 164.766 89.091 173.102C89.1778 174.665 89.2647 176.272 89.3515 177.835C93.5195 170.28 98.5558 163.203 100.77 154.65C103.288 144.708 102.377 134.114 98.5558 124.693C96.7758 132.855 92.7814 140.583 89.4818 148.094Z" fill="#FAFAFA"/>
<path d="M86.7899 251.817C86.7465 251.86 86.7899 251.86 86.7899 251.903C86.7899 251.86 86.8333 251.86 86.7899 251.817C86.8333 251.817 86.8333 251.817 86.7899 251.817Z" fill="#FAFAFA"/>
<path d="M114.229 172.147C110.973 178.052 106.197 182.828 102.637 188.472C95.5601 199.76 92.1302 212.915 89.3515 225.94C89.3515 232.496 89.3515 239.096 89.3515 245.652C91.0013 241.701 92.738 237.793 94.6049 233.929C99.8583 223.205 106.414 213.263 112.319 202.93C119.005 191.25 125.561 174.665 117.529 162.205C117.051 165.678 115.966 169.021 114.229 172.147Z" fill="#FAFAFA"/>
<path d="M89.3081 188.298C89.3081 194.854 89.3081 201.453 89.3081 208.009C92.3473 198.241 96.4284 188.906 102.637 180.657C107.543 174.144 113.057 167.936 113.404 159.209C113.708 151.872 110.843 145.142 106.414 139.628C106.718 144.317 106.458 149.049 105.503 153.652C104.243 159.904 101.552 165.591 98.3822 171.018C95.1259 176.662 91.5224 182.09 89.3081 188.298Z" fill="#FAFAFA"/>
<path d="M94.9523 117.529C95.1259 108.368 91.175 100.032 86.8334 92.2604C82.4917 100.032 78.5408 108.368 78.7144 117.529C78.8881 126.516 83.1429 135.069 86.8334 143.232C90.5238 135.069 94.7786 126.516 94.9523 117.529Z" fill="#FAFAFA"/>
<path d="M56.0509 162.335C52.3605 168.326 51.7527 176.011 53.0552 182.914C54.6182 191.207 58.6993 198.675 62.9107 205.752C65.9933 211.005 69.2062 216.172 72.2887 221.425C76.8475 229.24 80.755 237.402 84.2717 245.738C84.2717 239.139 84.2717 232.54 84.2717 225.94C82.7087 218.733 80.9721 211.526 78.5407 204.579C76.2831 198.067 73.3307 191.815 69.4232 186.214C65.6894 180.744 60.9136 175.968 58.1783 169.846C57.1363 167.371 56.4417 164.853 56.0509 162.335Z" fill="#FAFAFA"/>
<path d="M84.5322 173.102C84.3585 164.766 84.6625 156.387 84.1415 148.094C80.8418 140.583 76.8475 132.855 75.1108 124.736C71.2901 134.114 70.335 144.751 72.8965 154.694C75.0674 163.203 80.1471 170.324 84.3151 177.878C84.3585 176.228 84.4454 174.665 84.5322 173.102Z" fill="#FAFAFA"/>
<path d="M60.1755 159.209C60.5228 167.936 66.0367 174.144 70.9428 180.657C77.1948 188.906 81.276 198.241 84.2717 208.009C84.2717 201.453 84.2717 194.854 84.2717 188.298C82.0575 182.09 78.4539 176.662 75.1542 171.018C71.9848 165.591 69.3364 159.904 68.0339 153.652C67.0787 149.006 66.7748 144.274 67.1222 139.628C62.7371 145.142 59.915 151.872 60.1755 159.209Z" fill="#FAFAFA"/>
<path d="M173.623 251.817C173.58 251.86 173.623 251.86 173.623 251.903C173.623 251.86 173.667 251.86 173.623 251.817C173.667 251.817 173.667 251.817 173.623 251.817Z" fill="#FAFAFA"/>
<path d="M181.786 117.529C181.959 108.368 178.008 100.032 173.667 92.2604C169.325 100.032 165.374 108.368 165.548 117.529C165.721 126.516 169.976 135.069 173.667 143.232C177.357 135.069 181.612 126.516 181.786 117.529Z" fill="#FAFAFA"/>
<path d="M176.315 148.094C175.794 156.387 176.098 164.766 175.924 173.102C176.011 174.665 176.098 176.272 176.185 177.835C180.353 170.28 185.389 163.203 187.603 154.65C190.122 144.708 189.21 134.114 185.389 124.693C183.609 132.855 179.615 140.583 176.315 148.094Z" fill="#FAFAFA"/>
<path d="M142.884 162.335C139.194 168.326 138.586 176.011 139.888 182.914C141.451 191.207 145.533 198.675 149.744 205.752C152.827 211.005 156.039 216.172 159.122 221.425C163.681 229.24 167.588 237.402 171.105 245.738C171.105 239.139 171.105 232.54 171.105 225.94C169.542 218.733 167.805 211.526 165.374 204.579C163.116 198.067 160.164 191.815 156.257 186.214C152.523 180.744 147.747 175.968 145.012 169.846C143.97 167.371 143.275 164.853 142.884 162.335Z" fill="#FAFAFA"/>
<path d="M171.366 173.102C171.192 164.766 171.496 156.387 170.975 148.094C167.675 140.583 163.681 132.855 161.944 124.736C158.123 134.114 157.168 144.751 159.73 154.694C161.901 163.203 166.981 170.324 171.149 177.878C171.192 176.228 171.279 174.665 171.366 173.102Z" fill="#FAFAFA"/>
<path d="M176.141 188.298C176.141 194.854 176.141 201.453 176.141 208.009C179.181 198.241 183.262 188.906 189.47 180.657C194.376 174.144 199.89 167.936 200.238 159.209C200.542 151.872 197.676 145.142 193.248 139.628C193.552 144.317 193.291 149.049 192.336 153.652C191.077 159.904 188.385 165.591 185.216 171.018C181.959 176.662 178.356 182.09 176.141 188.298Z" fill="#FAFAFA"/>
<path d="M147.009 159.209C147.356 167.936 152.87 174.144 157.776 180.657C164.028 188.906 168.109 198.241 171.105 208.009C171.105 201.453 171.105 194.854 171.105 188.298C168.891 182.09 165.287 176.662 161.988 171.018C158.818 165.591 156.17 159.904 154.867 153.652C153.912 149.006 153.608 144.274 153.956 139.628C149.57 145.142 146.748 151.872 147.009 159.209Z" fill="#FAFAFA"/>
<path d="M201.063 172.147C197.806 178.052 193.03 182.828 189.47 188.472C182.393 199.76 178.963 212.915 176.185 225.94C176.185 232.496 176.185 239.096 176.185 245.652C177.835 241.701 179.571 237.793 181.438 233.929C186.692 223.205 193.248 213.263 199.152 202.93C205.838 191.25 212.394 174.665 204.362 162.205C203.885 165.678 202.799 169.021 201.063 172.147Z" fill="#FAFAFA"/>
<path d="M233.842 159.209C234.19 167.936 239.703 174.144 244.61 180.657C250.862 188.906 254.943 198.241 257.938 208.009C257.938 201.453 257.938 194.854 257.938 188.298C255.724 182.09 252.121 176.662 248.821 171.018C245.652 165.591 243.003 159.904 241.701 153.652C240.745 149.006 240.442 144.274 240.789 139.628C236.404 145.142 233.582 151.872 233.842 159.209Z" fill="#FAFAFA"/>
<path d="M260.457 251.817C260.413 251.86 260.457 251.86 260.457 251.903C260.457 251.86 260.5 251.86 260.457 251.817C260.5 251.817 260.5 251.817 260.457 251.817Z" fill="#FAFAFA"/>
<path d="M258.199 173.102C258.025 164.766 258.329 156.387 257.808 148.094C254.508 140.583 250.514 132.855 248.777 124.736C244.957 134.114 244.002 144.751 246.563 154.694C248.734 163.203 253.814 170.324 257.982 177.878C258.025 176.228 258.112 174.665 258.199 173.102Z" fill="#FAFAFA"/>
<path d="M229.718 162.335C226.027 168.326 225.419 176.011 226.722 182.914C228.285 191.207 232.366 198.675 236.577 205.752C239.66 211.005 242.873 216.172 245.955 221.425C250.514 229.24 254.422 237.402 257.938 245.738C257.938 239.139 257.938 232.54 257.938 225.94C256.375 218.733 254.639 211.526 252.207 204.579C249.95 198.067 246.997 191.815 243.09 186.214C239.356 180.744 234.58 175.968 231.845 169.846C230.803 167.371 230.108 164.853 229.718 162.335Z" fill="#FAFAFA"/>
<path d="M263.148 148.094C262.627 156.387 262.931 164.766 262.758 173.102C262.845 174.665 262.931 176.272 263.018 177.835C267.186 170.28 272.222 163.203 274.437 154.65C276.955 144.708 276.043 134.114 272.222 124.693C270.442 132.855 266.448 140.583 263.148 148.094Z" fill="#FAFAFA"/>
<path d="M287.896 172.147C284.64 178.052 279.864 182.828 276.304 188.472C269.227 199.76 265.797 212.915 263.018 225.94C263.018 232.496 263.018 239.096 263.018 245.652C264.668 241.701 266.405 237.793 268.272 233.929C273.525 223.205 280.081 213.263 285.986 202.93C292.672 191.25 299.228 174.665 291.196 162.205C290.718 165.678 289.633 169.021 287.896 172.147Z" fill="#FAFAFA"/>
<path d="M262.975 188.298C262.975 194.854 262.975 201.453 262.975 208.009C266.014 198.241 270.095 188.906 276.304 180.657C281.21 174.144 286.724 167.936 287.071 159.209C287.375 151.872 284.509 145.142 280.081 139.628C280.385 144.317 280.124 149.049 279.169 153.652C277.91 159.904 275.218 165.591 272.049 171.018C268.793 176.662 265.189 182.09 262.975 188.298Z" fill="#FAFAFA"/>
<path d="M268.619 117.529C268.793 108.368 264.842 100.032 260.5 92.2604C256.158 100.032 252.207 108.368 252.381 117.529C252.555 126.516 256.81 135.069 260.5 143.232C264.19 135.069 268.445 126.516 268.619 117.529Z" fill="#FAFAFA"/>
<path d="M374.729 172.147C371.473 178.052 366.697 182.828 363.137 188.472C356.06 199.76 352.63 212.915 349.851 225.94C349.851 232.496 349.851 239.096 349.851 245.652C351.501 241.701 353.238 237.793 355.105 233.929C360.358 223.205 366.914 213.263 372.819 202.93C379.505 191.25 386.061 174.665 378.029 162.205C377.551 165.678 376.466 169.021 374.729 172.147Z" fill="#FAFAFA"/>
<path d="M347.29 251.817C347.247 251.86 347.29 251.86 347.29 251.903C347.29 251.86 347.333 251.86 347.29 251.817C347.333 251.817 347.333 251.817 347.29 251.817Z" fill="#FAFAFA"/>
<path d="M345.032 173.102C344.859 164.766 345.162 156.387 344.641 148.094C341.342 140.583 337.347 132.855 335.611 124.736C331.79 134.114 330.835 144.751 333.397 154.694C335.567 163.203 340.647 170.324 344.815 177.878C344.859 176.228 344.945 174.665 345.032 173.102Z" fill="#FAFAFA"/>
<path d="M349.808 188.298C349.808 194.854 349.808 201.453 349.808 208.009C352.847 198.241 356.928 188.906 363.137 180.657C368.043 174.144 373.557 167.936 373.904 159.209C374.208 151.872 371.343 145.142 366.914 139.628C367.218 144.317 366.958 149.049 366.002 153.652C364.743 159.904 362.052 165.591 358.882 171.018C355.626 176.662 352.022 182.09 349.808 188.298Z" fill="#FAFAFA"/>
<path d="M320.676 159.209C321.023 167.936 326.537 174.144 331.443 180.657C337.695 188.906 341.776 198.241 344.772 208.009C344.772 201.453 344.772 194.854 344.772 188.298C342.557 182.09 338.954 176.662 335.654 171.018C332.485 165.591 329.836 159.904 328.534 153.652C327.579 149.006 327.275 144.274 327.622 139.628C323.237 145.142 320.415 151.872 320.676 159.209Z" fill="#FAFAFA"/>
<path d="M349.982 148.094C349.461 156.387 349.765 164.766 349.591 173.102C349.678 174.665 349.765 176.272 349.852 177.835C354.02 170.28 359.056 163.203 361.27 154.65C363.788 144.708 362.877 134.114 359.056 124.693C357.276 132.855 353.281 140.583 349.982 148.094Z" fill="#FAFAFA"/>
<path d="M316.551 162.335C312.86 168.326 312.253 176.011 313.555 182.914C315.118 191.207 319.199 198.675 323.411 205.752C326.493 211.005 329.706 216.172 332.789 221.425C337.347 229.24 341.255 237.402 344.772 245.738C344.772 239.139 344.772 232.54 344.772 225.94C343.209 218.733 341.472 211.526 339.041 204.579C336.783 198.067 333.831 191.815 329.923 186.214C326.189 180.744 321.414 175.968 318.678 169.846C317.636 167.371 316.942 164.853 316.551 162.335Z" fill="#FAFAFA"/>
<path d="M355.452 117.529C355.626 108.368 351.675 100.032 347.333 92.2604C342.992 100.032 339.041 108.368 339.214 117.529C339.388 126.516 343.643 135.069 347.333 143.232C351.024 135.069 355.279 126.516 355.452 117.529Z" fill="#FAFAFA"/>
<path d="M407.509 159.209C407.856 167.936 413.37 174.144 418.276 180.657C424.528 188.906 428.609 198.241 431.605 208.009C431.605 201.453 431.605 194.854 431.605 188.298C429.391 182.09 425.787 176.662 422.488 171.018C419.318 165.591 416.67 159.904 415.367 153.652C414.412 149.006 414.108 144.274 414.455 139.628C410.07 145.142 407.248 151.872 407.509 159.209Z" fill="#FAFAFA"/>
<path d="M403.384 162.335C399.694 168.326 399.086 176.011 400.388 182.914C401.951 191.207 406.033 198.675 410.244 205.752C413.327 211.005 416.539 216.172 419.622 221.425C424.181 229.24 428.088 237.402 431.605 245.738C431.605 239.139 431.605 232.54 431.605 225.94C430.042 218.733 428.305 211.526 425.874 204.579C423.616 198.067 420.664 191.815 416.757 186.214C413.023 180.744 408.247 175.968 405.512 169.846C404.47 167.371 403.775 164.853 403.384 162.335Z" fill="#FAFAFA"/>
<path d="M431.866 173.102C431.692 164.766 431.996 156.387 431.475 148.094C428.175 140.583 424.181 132.855 422.444 124.736C418.623 134.114 417.668 144.751 420.23 154.694C422.401 163.203 427.48 170.324 431.648 177.878C431.692 176.228 431.779 174.665 431.866 173.102Z" fill="#FAFAFA"/>
<path d="M436.641 188.298C436.641 194.854 436.641 201.453 436.641 208.009C439.681 198.241 443.762 188.906 449.97 180.657C454.876 174.144 460.39 167.936 460.738 159.209C461.041 151.872 458.176 145.142 453.747 139.628C454.051 144.317 453.791 149.049 452.836 153.652C451.577 159.904 448.885 165.591 445.715 171.018C442.459 176.662 438.856 182.09 436.641 188.298Z" fill="#FAFAFA"/>
<path d="M434.123 251.817C434.08 251.86 434.123 251.86 434.123 251.903C434.123 251.86 434.167 251.86 434.123 251.817C434.167 251.817 434.167 251.817 434.123 251.817Z" fill="#FAFAFA"/>
<path d="M442.286 117.529C442.459 108.368 438.508 100.032 434.167 92.2604C429.825 100.032 425.874 108.368 426.048 117.529C426.221 126.516 430.476 135.069 434.167 143.232C437.857 135.069 442.112 126.516 442.286 117.529Z" fill="#FAFAFA"/>
<path d="M436.815 148.094C436.294 156.387 436.598 164.766 436.424 173.102C436.511 174.665 436.598 176.272 436.685 177.835C440.853 170.28 445.889 163.203 448.103 154.65C450.622 144.708 449.71 134.114 445.889 124.693C444.109 132.855 440.115 140.583 436.815 148.094Z" fill="#FAFAFA"/>
<path d="M461.563 172.147C458.306 178.052 453.531 182.828 449.97 188.472C442.893 199.76 439.463 212.915 436.685 225.94C436.685 232.496 436.685 239.096 436.685 245.652C438.335 241.701 440.071 237.793 441.938 233.929C447.192 223.205 453.748 213.263 459.652 202.93C466.338 191.25 472.894 174.665 464.862 162.205C464.385 165.678 463.299 169.021 461.563 172.147Z" fill="#FAFAFA"/>
<path d="M503.633 186.214C499.9 180.744 495.124 175.968 492.388 169.846C491.303 167.371 490.608 164.853 490.218 162.335C486.527 168.326 485.919 176.011 487.222 182.914C488.785 191.207 492.866 198.675 497.077 205.752C500.16 211.005 503.373 216.172 506.455 221.425C511.014 229.24 514.922 237.402 518.438 245.738C518.438 239.139 518.438 232.54 518.438 225.94C516.875 218.733 515.139 211.526 512.707 204.579C510.493 198.11 507.541 191.858 503.633 186.214Z" fill="#FAFAFA"/>
<path d="M502.244 153.652C501.289 149.006 500.985 144.274 501.332 139.628C496.904 145.142 494.082 151.915 494.342 159.209C494.69 167.936 500.203 174.144 505.109 180.657C511.361 188.906 515.443 198.241 518.438 208.009C518.438 201.453 518.438 194.854 518.438 188.298C516.224 182.09 512.621 176.662 509.321 171.018C506.195 165.591 503.547 159.904 502.244 153.652Z" fill="#FAFAFA"/>
<path d="M507.02 154.65C509.191 163.16 514.27 170.28 518.438 177.835C518.525 176.272 518.612 174.665 518.699 173.102C518.525 164.766 518.829 156.387 518.308 148.094C515.008 140.583 511.014 132.855 509.277 124.736C505.413 134.114 504.502 144.708 507.02 154.65Z" fill="#FAFAFA"/>
<path d="M477.627 182.35C477.67 182.307 477.627 182.307 477.627 182.263C477.627 182.307 477.583 182.307 477.627 182.35C477.583 182.35 477.583 182.35 477.627 182.35Z" fill="#FAFAFA"/>
<path d="M446.888 271.919C447.365 268.445 448.494 265.102 450.187 261.976C453.444 256.072 458.22 251.296 461.78 245.652C468.857 234.363 472.287 221.208 475.065 208.183C475.065 201.627 475.065 195.028 475.065 188.472C473.415 192.423 471.679 196.33 469.812 200.194C464.558 210.918 458.003 220.861 452.098 231.194C445.412 242.873 438.899 259.458 446.888 271.919Z" fill="#FAFAFA"/>
<path d="M504.241 274.958C503.894 266.231 498.38 260.022 493.474 253.51C487.222 245.261 483.141 235.926 480.145 226.157C480.145 232.713 480.145 239.313 480.145 245.869C482.359 252.077 485.963 257.504 489.262 263.148C492.432 268.575 495.08 274.263 496.383 280.515C497.338 285.161 497.642 289.893 497.294 294.539C501.68 289.025 504.502 282.295 504.241 274.958Z" fill="#FAFAFA"/>
<path d="M508.366 271.832C512.056 265.84 512.664 258.155 511.362 251.252C509.799 242.96 505.717 235.492 501.506 228.415C498.423 223.162 495.21 217.995 492.128 212.742C487.569 204.927 483.662 196.764 480.145 188.428C480.145 195.028 480.145 201.627 480.145 208.226C481.708 215.434 483.445 222.641 485.876 229.587C488.134 236.1 491.086 242.352 494.993 247.953C498.727 253.423 503.503 258.199 506.238 264.321C507.28 266.795 507.975 269.314 508.366 271.832Z" fill="#FAFAFA"/>
<path d="M475.108 245.869C475.108 239.313 475.108 232.713 475.108 226.157C472.069 235.926 467.988 245.261 461.78 253.51C456.873 260.022 451.36 266.231 451.012 274.958C450.708 282.295 453.574 289.025 458.002 294.539C457.698 289.85 457.959 285.117 458.914 280.515C460.173 274.263 462.865 268.575 466.034 263.148C469.291 257.504 472.894 252.077 475.108 245.869Z" fill="#FAFAFA"/>
<path d="M477.627 290.935C473.893 299.097 469.638 307.65 469.508 316.638C469.334 325.799 473.285 334.135 477.627 341.906C481.968 334.135 485.919 325.799 485.746 316.638C485.572 307.65 481.361 299.097 477.627 290.935Z" fill="#FAFAFA"/>
<path d="M491.564 279.517C489.393 271.007 484.313 263.887 480.145 256.332C480.058 257.895 479.971 259.501 479.885 261.064C480.058 269.4 479.754 277.78 480.275 286.072C483.575 293.584 487.569 301.312 489.306 309.431C493.17 300.053 494.082 289.459 491.564 279.517Z" fill="#FAFAFA"/>
<path d="M475.326 261.064C475.239 259.501 475.152 257.895 475.065 256.332C470.897 263.887 465.861 270.963 463.647 279.517C461.128 289.459 462.04 300.053 465.861 309.474C467.598 301.355 471.592 293.627 474.892 286.116C475.456 277.78 475.152 269.4 475.326 261.064Z" fill="#FAFAFA"/>
<path d="M390.793 290.935C387.06 299.097 382.805 307.65 382.674 316.638C382.501 325.799 386.452 334.135 390.793 341.906C395.135 334.135 399.086 325.799 398.912 316.638C398.739 307.65 394.527 299.097 390.793 290.935Z" fill="#FAFAFA"/>
<path d="M404.73 279.517C402.559 271.007 397.48 263.887 393.312 256.332C393.225 257.895 393.138 259.501 393.051 261.064C393.225 269.4 392.921 277.78 393.442 286.072C396.741 293.584 400.736 301.312 402.472 309.431C406.336 300.053 407.248 289.459 404.73 279.517Z" fill="#FAFAFA"/>
<path d="M417.408 274.958C417.06 266.231 411.547 260.022 406.64 253.51C400.388 245.261 396.307 235.926 393.312 226.157C393.312 232.713 393.312 239.313 393.312 245.869C395.526 252.077 399.129 257.504 402.429 263.148C405.598 268.575 408.247 274.263 409.549 280.515C410.505 285.161 410.808 289.893 410.461 294.539C414.846 289.025 417.668 282.295 417.408 274.958Z" fill="#FAFAFA"/>
<path d="M390.793 182.35C390.837 182.307 390.793 182.307 390.793 182.263C390.793 182.307 390.75 182.307 390.793 182.35C390.75 182.35 390.75 182.35 390.793 182.35Z" fill="#FAFAFA"/>
<path d="M393.268 208.226C394.831 215.434 396.568 222.641 398.999 229.587C401.257 236.1 404.209 242.352 408.117 247.953C411.851 253.423 416.626 258.199 419.362 264.321C420.447 266.795 421.142 269.314 421.532 271.832C425.223 265.84 425.831 258.155 424.528 251.252C422.965 242.96 418.884 235.492 414.673 228.415C411.59 223.162 408.377 217.995 405.295 212.742C400.736 204.927 396.828 196.764 393.312 188.428C393.268 195.028 393.268 201.627 393.268 208.226Z" fill="#FAFAFA"/>
<path d="M388.492 261.064C388.406 259.501 388.319 257.895 388.232 256.332C384.064 263.887 379.028 270.963 376.813 279.517C374.295 289.459 375.207 300.053 379.028 309.474C380.764 301.355 384.759 293.627 388.058 286.116C388.623 277.78 388.319 269.4 388.492 261.064Z" fill="#FAFAFA"/>
<path d="M388.275 245.869C388.275 239.313 388.275 232.713 388.275 226.157C385.236 235.926 381.155 245.261 374.946 253.51C370.04 260.022 364.526 266.231 364.179 274.958C363.875 282.295 366.741 289.025 371.169 294.539C370.865 289.85 371.126 285.117 372.081 280.515C373.34 274.263 376.032 268.575 379.201 263.148C382.457 257.504 386.061 252.077 388.275 245.869Z" fill="#FAFAFA"/>
<path d="M360.054 271.919C360.532 268.445 361.661 265.102 363.354 261.976C366.61 256.072 371.386 251.296 374.946 245.652C382.023 234.363 385.453 221.208 388.232 208.183C388.232 201.627 388.232 195.028 388.232 188.472C386.582 192.423 384.845 196.33 382.978 200.194C377.725 210.918 371.169 220.861 365.264 231.194C358.578 242.873 352.066 259.458 360.054 271.919Z" fill="#FAFAFA"/>
<path d="M303.96 182.35C304.003 182.307 303.96 182.307 303.96 182.263C303.96 182.307 303.917 182.307 303.96 182.35C303.917 182.35 303.917 182.35 303.96 182.35Z" fill="#FAFAFA"/>
<path d="M306.435 208.226C307.998 215.434 309.734 222.641 312.166 229.587C314.423 236.1 317.376 242.352 321.283 247.953C325.017 253.423 329.793 258.199 332.528 264.321C333.614 266.795 334.308 269.314 334.699 271.832C338.389 265.84 338.997 258.155 337.695 251.252C336.132 242.96 332.051 235.492 327.839 228.415C324.757 223.162 321.544 217.995 318.461 212.742C313.902 204.927 309.995 196.764 306.478 188.428C306.435 195.028 306.435 201.627 306.435 208.226Z" fill="#FAFAFA"/>
<path d="M330.575 274.958C330.227 266.231 324.713 260.022 319.807 253.51C313.555 245.261 309.474 235.926 306.478 226.157C306.478 232.713 306.478 239.313 306.478 245.869C308.693 252.077 312.296 257.504 315.596 263.148C318.765 268.575 321.414 274.263 322.716 280.515C323.671 285.161 323.975 289.893 323.628 294.539C328.013 289.025 330.835 282.295 330.575 274.958Z" fill="#FAFAFA"/>
<path d="M303.96 290.935C300.226 299.097 295.971 307.65 295.841 316.638C295.668 325.799 299.618 334.135 303.96 341.906C308.302 334.135 312.253 325.799 312.079 316.638C311.905 307.65 307.694 299.097 303.96 290.935Z" fill="#FAFAFA"/>
<path d="M317.897 279.517C315.726 271.007 310.646 263.887 306.478 256.332C306.391 257.895 306.305 259.501 306.218 261.064C306.391 269.4 306.087 277.78 306.608 286.072C309.908 293.584 313.902 301.312 315.639 309.431C319.503 300.053 320.415 289.459 317.897 279.517Z" fill="#FAFAFA"/>
<path d="M273.221 271.919C273.699 268.445 274.828 265.102 276.521 261.976C279.777 256.072 284.553 251.296 288.113 245.652C295.19 234.363 298.62 221.208 301.398 208.183C301.398 201.627 301.398 195.028 301.398 188.472C299.749 192.423 298.012 196.33 296.145 200.194C290.892 210.918 284.336 220.861 278.431 231.194C271.745 242.873 265.232 259.458 273.221 271.919Z" fill="#FAFAFA"/>
<path d="M301.659 261.064C301.572 259.501 301.485 257.895 301.399 256.332C297.231 263.887 292.194 270.963 289.98 279.517C287.462 289.459 288.374 300.053 292.194 309.474C293.931 301.355 297.925 293.627 301.225 286.116C301.789 277.78 301.485 269.4 301.659 261.064Z" fill="#FAFAFA"/>
<path d="M301.442 245.869C301.442 239.313 301.442 232.713 301.442 226.157C298.403 235.926 294.322 245.261 288.113 253.51C283.207 260.022 277.693 266.231 277.346 274.958C277.042 282.295 279.907 289.025 284.336 294.539C284.032 289.85 284.292 285.117 285.247 280.515C286.507 274.263 289.198 268.575 292.368 263.148C295.624 257.504 299.228 252.077 301.442 245.869Z" fill="#FAFAFA"/>
<path d="M214.826 261.064C214.739 259.501 214.652 257.895 214.565 256.332C210.397 263.887 205.361 270.963 203.147 279.517C200.628 289.459 201.54 300.053 205.361 309.474C207.098 301.355 211.092 293.627 214.391 286.116C214.956 277.78 214.652 269.4 214.826 261.064Z" fill="#FAFAFA"/>
<path d="M219.602 208.226C221.165 215.434 222.901 222.641 225.333 229.587C227.59 236.1 230.543 242.352 234.45 247.953C238.184 253.423 242.96 258.199 245.695 264.321C246.78 266.795 247.475 269.314 247.866 271.832C251.556 265.84 252.164 258.155 250.861 251.252C249.298 242.96 245.217 235.492 241.006 228.415C237.923 223.162 234.71 217.995 231.628 212.742C227.069 204.927 223.162 196.764 219.645 188.428C219.602 195.028 219.602 201.627 219.602 208.226Z" fill="#FAFAFA"/>
<path d="M243.741 274.958C243.394 266.231 237.88 260.022 232.974 253.51C226.722 245.261 222.641 235.926 219.645 226.157C219.645 232.713 219.645 239.313 219.645 245.869C221.859 252.077 225.463 257.504 228.762 263.148C231.932 268.575 234.58 274.263 235.883 280.515C236.838 285.161 237.142 289.893 236.794 294.539C241.18 289.025 244.002 282.295 243.741 274.958Z" fill="#FAFAFA"/>
<path d="M231.064 279.517C228.893 271.007 223.813 263.887 219.645 256.332C219.558 257.895 219.471 259.501 219.384 261.064C219.558 269.4 219.254 277.78 219.775 286.072C223.075 293.584 227.069 301.312 228.806 309.431C232.67 300.053 233.582 289.459 231.064 279.517Z" fill="#FAFAFA"/>
<path d="M217.127 290.935C213.393 299.097 209.138 307.65 209.008 316.638C208.834 325.799 212.785 334.135 217.127 341.906C221.468 334.135 225.419 325.799 225.246 316.638C225.072 307.65 220.861 299.097 217.127 290.935Z" fill="#FAFAFA"/>
<path d="M217.127 182.35C217.17 182.307 217.127 182.307 217.127 182.263C217.127 182.307 217.083 182.307 217.127 182.35C217.083 182.35 217.083 182.35 217.127 182.35Z" fill="#FAFAFA"/>
<path d="M186.388 271.919C186.865 268.445 187.994 265.102 189.687 261.976C192.944 256.072 197.719 251.296 201.28 245.652C208.357 234.363 211.786 221.208 214.565 208.183C214.565 201.627 214.565 195.028 214.565 188.472C212.915 192.423 211.179 196.33 209.312 200.194C204.058 210.918 197.502 220.861 191.598 231.194C184.912 242.873 178.399 259.458 186.388 271.919Z" fill="#FAFAFA"/>
<path d="M214.609 245.869C214.609 239.313 214.609 232.713 214.609 226.157C211.569 235.926 207.488 245.261 201.28 253.51C196.374 260.022 190.86 266.231 190.512 274.958C190.208 282.295 193.074 289.025 197.502 294.539C197.198 289.85 197.459 285.117 198.414 280.515C199.673 274.263 202.365 268.575 205.534 263.148C208.791 257.504 212.394 252.077 214.609 245.869Z" fill="#FAFAFA"/>
<path d="M130.293 182.35C130.337 182.307 130.293 182.307 130.293 182.263C130.293 182.307 130.25 182.307 130.293 182.35C130.25 182.35 130.25 182.35 130.293 182.35Z" fill="#FAFAFA"/>
<path d="M156.908 274.958C156.56 266.231 151.047 260.022 146.141 253.51C139.889 245.261 135.807 235.926 132.812 226.157C132.812 232.713 132.812 239.313 132.812 245.869C135.026 252.077 138.629 257.504 141.929 263.148C145.098 268.575 147.747 274.263 149.049 280.515C150.005 285.161 150.308 289.893 149.961 294.539C154.346 289.025 157.168 282.295 156.908 274.958Z" fill="#FAFAFA"/>
<path d="M132.768 208.226C134.331 215.434 136.068 222.641 138.499 229.587C140.757 236.1 143.709 242.352 147.617 247.953C151.351 253.423 156.126 258.199 158.862 264.321C159.947 266.795 160.642 269.314 161.032 271.832C164.723 265.84 165.331 258.155 164.028 251.252C162.465 242.96 158.384 235.492 154.173 228.415C151.09 223.162 147.877 217.995 144.795 212.742C140.236 204.927 136.328 196.764 132.812 188.428C132.768 195.028 132.768 201.627 132.768 208.226Z" fill="#FAFAFA"/>
<path d="M130.293 290.935C126.56 299.097 122.305 307.65 122.174 316.638C122.001 325.799 125.952 334.135 130.293 341.906C134.635 334.135 138.586 325.799 138.412 316.638C138.239 307.65 134.027 299.097 130.293 290.935Z" fill="#FAFAFA"/>
<path d="M127.775 245.869C127.775 239.313 127.775 232.713 127.775 226.157C124.736 235.926 120.655 245.261 114.446 253.51C109.54 260.022 104.026 266.231 103.679 274.958C103.375 282.295 106.241 289.025 110.669 294.539C110.365 289.85 110.626 285.117 111.581 280.515C112.84 274.263 115.532 268.575 118.701 263.148C121.957 257.504 125.561 252.077 127.775 245.869Z" fill="#FAFAFA"/>
<path d="M144.23 279.517C142.059 271.007 136.98 263.887 132.812 256.332C132.725 257.895 132.638 259.501 132.551 261.064C132.725 269.4 132.421 277.78 132.942 286.072C136.242 293.584 140.236 301.312 141.973 309.431C145.837 300.053 146.748 289.459 144.23 279.517Z" fill="#FAFAFA"/>
<path d="M127.992 261.064C127.906 259.501 127.819 257.895 127.732 256.332C123.564 263.887 118.528 270.963 116.313 279.517C113.795 289.459 114.707 300.053 118.528 309.474C120.264 301.355 124.259 293.627 127.558 286.116C128.123 277.78 127.819 269.4 127.992 261.064Z" fill="#FAFAFA"/>
<path d="M99.5544 271.919C100.032 268.445 101.161 265.102 102.854 261.976C106.11 256.072 110.886 251.296 114.446 245.652C121.523 234.363 124.953 221.208 127.732 208.183C127.732 201.627 127.732 195.028 127.732 188.472C126.082 192.423 124.345 196.33 122.478 200.194C117.225 210.918 110.669 220.861 104.764 231.194C98.0782 242.873 91.5657 259.458 99.5544 271.919Z" fill="#FAFAFA"/>
<path d="M43.4601 290.935C39.7263 299.097 35.4715 307.65 35.3412 316.638C35.1675 325.799 39.1185 334.135 43.4601 341.906C47.8018 334.135 51.7527 325.799 51.579 316.638C51.4054 307.65 47.194 299.097 43.4601 290.935Z" fill="#FAFAFA"/>
<path d="M45.9348 208.226C47.4978 215.434 49.2345 222.641 51.6658 229.587C53.9235 236.1 56.8758 242.352 60.7833 247.953C64.5172 253.423 69.293 258.199 72.0282 264.321C73.1137 266.795 73.8083 269.314 74.1991 271.832C77.8895 265.84 78.4973 258.155 77.1948 251.252C75.6318 242.96 71.5507 235.492 67.3392 228.415C64.2567 223.162 61.0438 217.995 57.9612 212.742C53.4025 204.927 49.495 196.764 45.9782 188.428C45.9348 195.028 45.9348 201.627 45.9348 208.226Z" fill="#FAFAFA"/>
<path d="M43.4601 182.35C43.5035 182.307 43.4601 182.307 43.4601 182.263C43.4601 182.307 43.4166 182.307 43.4601 182.35C43.4166 182.35 43.4166 182.35 43.4601 182.35Z" fill="#FAFAFA"/>
<path d="M57.3968 279.517C55.226 271.007 50.1463 263.887 45.9783 256.332C45.8914 257.895 45.8046 259.501 45.7178 261.064C45.8914 269.4 45.5875 277.78 46.1085 286.072C49.4082 293.584 53.4025 301.312 55.1392 309.431C59.0033 300.053 59.915 289.459 57.3968 279.517Z" fill="#FAFAFA"/>
<path d="M40.7683 286.072C41.2893 277.78 40.9854 269.4 41.159 261.064C41.0722 259.501 40.9854 257.895 40.8985 256.332C36.7305 263.887 31.6942 271.007 29.5234 279.517C27.0052 289.459 27.9169 300.053 31.7376 309.474C33.4743 301.312 37.4686 293.584 40.7683 286.072Z" fill="#FAFAFA"/>
<path d="M12.7211 271.919C13.1987 268.445 14.3275 265.102 16.0208 261.976C19.277 256.072 24.0528 251.296 27.613 245.652C34.6899 234.363 38.1198 221.208 40.8985 208.183C40.8985 201.627 40.8985 195.028 40.8985 188.472C39.2487 192.423 37.512 196.33 35.6451 200.194C30.3917 210.918 23.8358 220.861 17.9311 231.194C11.2449 242.873 4.73242 259.458 12.7211 271.919Z" fill="#FAFAFA"/>
<path d="M40.9419 245.869C40.9419 239.313 40.9419 232.713 40.9419 226.157C37.9027 235.926 33.8216 245.261 27.613 253.51C22.7069 260.022 17.193 266.231 16.8456 274.958C16.5417 282.295 19.4072 289.025 23.8357 294.539C23.5318 289.85 23.7923 285.117 24.7475 280.515C26.0066 274.263 28.6984 268.575 31.8678 263.148C35.1241 257.504 38.7276 252.077 40.9419 245.869Z" fill="#FAFAFA"/>
<path d="M70.0745 274.958C69.7271 266.231 64.2132 260.022 59.3071 253.51C53.0551 245.261 48.974 235.926 45.9782 226.157C45.9782 232.713 45.9782 239.313 45.9782 245.869C48.1925 252.077 51.796 257.504 55.0957 263.148C58.2651 268.575 60.9135 274.263 62.216 280.515C63.1712 285.161 63.4751 289.893 63.1278 294.539C67.5129 289.025 70.335 282.295 70.0745 274.958Z" fill="#FAFAFA"/>
<path d="M30.6956 335.915C30.218 339.388 29.0892 342.731 27.3959 345.857C24.1397 351.762 19.3639 356.538 15.8037 362.182C8.72677 373.47 5.29685 386.625 2.51819 399.65C2.51819 406.206 2.51819 412.806 2.51819 419.362C4.16802 415.411 5.90469 411.503 7.7716 407.639C13.025 396.915 19.5809 386.973 25.4856 376.64C32.1718 364.961 38.6843 348.375 30.6956 335.915Z" fill="#FAFAFA"/>
<path d="M0 265.97V316.855C3.73383 308.692 7.94525 300.183 8.11892 291.196C8.29258 282.078 4.34167 273.742 0 265.97Z" fill="#FAFAFA"/>
<path d="M13.8933 328.317C16.4115 318.374 15.4997 307.781 11.679 298.359C9.94238 306.478 5.94805 314.206 2.64838 321.718C2.12738 330.01 2.4313 338.39 2.25763 346.726C2.34446 348.289 2.4313 349.895 2.51813 351.458C6.68613 343.947 11.7225 336.827 13.8933 328.317Z" fill="#FAFAFA"/>
<path d="M11.5922 344.685C8.33598 350.329 4.68898 355.756 2.47473 361.965C2.47473 368.521 2.47473 375.12 2.47473 381.676C5.5139 371.907 9.59507 362.573 15.8036 354.323C20.7097 347.811 26.2236 341.602 26.571 332.876C26.8749 325.538 24.0094 318.809 19.5809 313.295C19.8848 317.984 19.6243 322.716 18.6691 327.318C17.4101 333.57 14.7616 339.258 11.5922 344.685Z" fill="#FAFAFA"/>
<path d="M112.319 376.596C119.005 364.917 125.561 348.332 117.529 335.871C117.051 339.345 115.922 342.688 114.229 345.814C110.973 351.718 106.197 356.494 102.637 362.138C95.5601 373.427 92.1302 386.582 89.3515 399.607C89.3515 406.163 89.3515 412.762 89.3515 419.318C91.0013 415.367 92.738 411.46 94.6049 407.596C99.8149 396.872 106.414 386.929 112.319 376.596Z" fill="#FAFAFA"/>
<path d="M62.9542 379.418C66.0367 384.672 69.2496 389.838 72.3322 395.092C76.8909 402.907 80.7984 411.069 84.3152 419.405C84.3152 412.806 84.3152 406.206 84.3152 399.607C82.7522 392.4 81.0155 385.193 78.5842 378.246C76.3265 371.734 73.3742 365.482 69.4667 359.881C65.7328 354.41 60.957 349.634 58.2218 343.513C57.1363 341.038 56.4417 338.52 56.0509 336.002C52.3605 341.993 51.7527 349.678 53.0552 356.581C54.6616 364.874 58.7427 372.341 62.9542 379.418Z" fill="#FAFAFA"/>
<path d="M86.7899 425.57C86.7899 425.527 86.7899 425.527 86.8334 425.483C86.8334 425.483 86.8334 425.483 86.7899 425.483H86.7465C86.7899 425.527 86.7899 425.527 86.7899 425.57Z" fill="#FAFAFA"/>
<path d="M86.79 265.927C82.4483 273.699 78.4974 282.035 78.671 291.196C78.8447 300.183 83.0995 308.736 86.79 316.898C90.5238 308.736 94.7786 300.183 94.9089 291.196C95.126 282.035 91.175 273.699 86.79 265.927Z" fill="#FAFAFA"/>
<path d="M84.0981 321.761C80.7984 314.25 76.8041 306.522 75.0674 298.403C71.2467 307.781 70.2916 318.418 72.8531 328.36C75.024 336.87 80.1037 343.99 84.2717 351.545C84.3586 349.982 84.4454 348.375 84.5322 346.812C84.3586 338.433 84.6625 330.053 84.0981 321.761Z" fill="#FAFAFA"/>
<path d="M100.727 328.317C103.245 318.374 102.333 307.781 98.5124 298.359C96.7758 306.478 92.7814 314.206 89.4818 321.718C88.9608 330.01 89.2647 338.39 89.091 346.726C89.1778 348.289 89.2647 349.895 89.3515 351.458C93.5195 343.947 98.5558 336.827 100.727 328.317Z" fill="#FAFAFA"/>
<path d="M98.4256 344.685C95.1694 350.329 91.5224 355.756 89.3081 361.965C89.3081 368.521 89.3081 375.12 89.3081 381.676C92.3473 371.907 96.4284 362.573 102.637 354.323C107.543 347.811 113.057 341.602 113.404 332.876C113.708 325.538 110.843 318.809 106.414 313.295C106.718 317.984 106.458 322.716 105.503 327.318C104.243 333.57 101.595 339.258 98.4256 344.685Z" fill="#FAFAFA"/>
<path d="M84.3152 361.965C82.1009 355.756 78.4973 350.329 75.1977 344.685C72.0282 339.258 69.3798 333.57 68.0773 327.318C67.1222 322.673 66.8182 317.94 67.1656 313.295C62.7371 318.809 59.915 325.582 60.1755 332.876C60.5228 341.602 66.0367 347.811 70.9428 354.323C77.1948 362.573 81.276 371.907 84.2717 381.676C84.3152 375.12 84.3152 368.521 84.3152 361.965Z" fill="#FAFAFA"/>
<path d="M173.623 425.57C173.623 425.527 173.623 425.527 173.667 425.483C173.667 425.483 173.667 425.483 173.623 425.483H173.58C173.623 425.527 173.623 425.527 173.623 425.57Z" fill="#FAFAFA"/>
<path d="M171.148 361.965C168.934 355.756 165.331 350.329 162.031 344.685C158.862 339.258 156.213 333.57 154.911 327.318C153.956 322.673 153.652 317.94 153.999 313.295C149.57 318.809 146.748 325.582 147.009 332.876C147.356 341.602 152.87 347.811 157.776 354.323C164.028 362.573 168.109 371.907 171.105 381.676C171.148 375.12 171.148 368.521 171.148 361.965Z" fill="#FAFAFA"/>
<path d="M149.787 379.418C152.87 384.672 156.083 389.838 159.165 395.092C163.724 402.907 167.632 411.069 171.148 419.405C171.148 412.806 171.148 406.206 171.148 399.607C169.585 392.4 167.849 385.193 165.417 378.246C163.16 371.734 160.207 365.482 156.3 359.881C152.566 354.41 147.79 349.634 145.055 343.513C143.97 341.038 143.275 338.52 142.884 336.002C139.194 341.993 138.586 349.678 139.888 356.581C141.495 364.874 145.576 372.341 149.787 379.418Z" fill="#FAFAFA"/>
<path d="M173.623 265.927C169.282 273.699 165.331 282.035 165.504 291.196C165.678 300.183 169.933 308.736 173.623 316.898C177.357 308.736 181.612 300.183 181.742 291.196C181.959 282.035 178.008 273.699 173.623 265.927Z" fill="#FAFAFA"/>
<path d="M199.152 376.596C205.838 364.917 212.394 348.332 204.362 335.871C203.885 339.345 202.756 342.688 201.063 345.814C197.806 351.718 193.03 356.494 189.47 362.138C182.393 373.427 178.963 386.582 176.185 399.607C176.185 406.163 176.185 412.762 176.185 419.318C177.835 415.367 179.571 411.46 181.438 407.596C186.648 396.872 193.248 386.929 199.152 376.596Z" fill="#FAFAFA"/>
<path d="M185.259 344.685C182.003 350.329 178.356 355.756 176.141 361.965C176.141 368.521 176.141 375.12 176.141 381.676C179.181 371.907 183.262 362.573 189.47 354.323C194.376 347.811 199.89 341.602 200.238 332.876C200.542 325.538 197.676 318.809 193.248 313.295C193.552 317.984 193.291 322.716 192.336 327.318C191.077 333.57 188.428 339.258 185.259 344.685Z" fill="#FAFAFA"/>
<path d="M187.56 328.317C190.078 318.374 189.166 307.781 185.346 298.359C183.609 306.478 179.615 314.206 176.315 321.718C175.794 330.01 176.098 338.39 175.924 346.726C176.011 348.289 176.098 349.895 176.185 351.458C180.353 343.947 185.389 336.827 187.56 328.317Z" fill="#FAFAFA"/>
<path d="M170.931 321.761C167.632 314.25 163.637 306.522 161.901 298.403C158.08 307.781 157.125 318.418 159.686 328.36C161.857 336.87 166.937 343.99 171.105 351.545C171.192 349.982 171.279 348.375 171.366 346.812C171.192 338.433 171.496 330.053 170.931 321.761Z" fill="#FAFAFA"/>
<path d="M272.092 344.685C268.836 350.329 265.189 355.756 262.975 361.965C262.975 368.521 262.975 375.12 262.975 381.676C266.014 371.907 270.095 362.573 276.304 354.323C281.21 347.811 286.724 341.602 287.071 332.876C287.375 325.538 284.509 318.809 280.081 313.295C280.385 317.984 280.124 322.716 279.169 327.318C277.91 333.57 275.262 339.258 272.092 344.685Z" fill="#FAFAFA"/>
<path d="M260.457 265.927C256.115 273.699 252.164 282.035 252.338 291.196C252.511 300.183 256.766 308.736 260.457 316.898C264.19 308.736 268.445 300.183 268.575 291.196C268.793 282.035 264.842 273.699 260.457 265.927Z" fill="#FAFAFA"/>
<path d="M274.393 328.317C276.911 318.374 276 307.781 272.179 298.359C270.442 306.478 266.448 314.206 263.148 321.718C262.627 330.01 262.931 338.39 262.758 346.726C262.845 348.289 262.931 349.895 263.018 351.458C267.186 343.947 272.222 336.827 274.393 328.317Z" fill="#FAFAFA"/>
<path d="M257.982 361.965C255.768 355.756 252.164 350.329 248.864 344.685C245.695 339.258 243.047 333.57 241.744 327.318C240.789 322.673 240.485 317.94 240.832 313.295C236.404 318.809 233.582 325.582 233.842 332.876C234.19 341.602 239.703 347.811 244.61 354.323C250.862 362.573 254.943 371.907 257.938 381.676C257.982 375.12 257.982 368.521 257.982 361.965Z" fill="#FAFAFA"/>
<path d="M257.765 321.761C254.465 314.25 250.471 306.522 248.734 298.403C244.913 307.781 243.958 318.418 246.52 328.36C248.691 336.87 253.77 343.99 257.938 351.545C258.025 349.982 258.112 348.375 258.199 346.812C258.025 338.433 258.329 330.053 257.765 321.761Z" fill="#FAFAFA"/>
<path d="M285.986 376.596C292.672 364.917 299.228 348.332 291.196 335.871C290.718 339.345 289.589 342.688 287.896 345.814C284.64 351.718 279.864 356.494 276.304 362.138C269.227 373.427 265.797 386.582 263.018 399.607C263.018 406.163 263.018 412.762 263.018 419.318C264.668 415.367 266.405 411.46 268.272 407.596C273.482 396.872 280.081 386.929 285.986 376.596Z" fill="#FAFAFA"/>
<path d="M236.621 379.418C239.703 384.672 242.916 389.838 245.999 395.092C250.558 402.907 254.465 411.069 257.982 419.405C257.982 412.806 257.982 406.206 257.982 399.607C256.419 392.4 254.682 385.193 252.251 378.246C249.993 371.734 247.041 365.482 243.133 359.881C239.4 354.41 234.624 349.634 231.888 343.513C230.803 341.038 230.108 338.52 229.718 336.002C226.027 341.993 225.419 349.678 226.722 356.581C228.328 364.874 232.409 372.341 236.621 379.418Z" fill="#FAFAFA"/>
<path d="M260.457 425.57C260.457 425.527 260.457 425.527 260.5 425.483C260.5 425.483 260.5 425.483 260.457 425.483H260.413C260.457 425.527 260.457 425.527 260.457 425.57Z" fill="#FAFAFA"/>
<path d="M361.227 328.317C363.745 318.374 362.833 307.781 359.012 298.359C357.276 306.478 353.281 314.206 349.982 321.718C349.461 330.01 349.765 338.39 349.591 346.726C349.678 348.289 349.765 349.895 349.852 351.458C354.02 343.947 359.056 336.827 361.227 328.317Z" fill="#FAFAFA"/>
<path d="M372.819 376.596C379.505 364.917 386.061 348.332 378.029 335.871C377.551 339.345 376.422 342.688 374.729 345.814C371.473 351.718 366.697 356.494 363.137 362.138C356.06 373.427 352.63 386.582 349.851 399.607C349.851 406.163 349.851 412.762 349.851 419.318C351.501 415.367 353.238 411.46 355.105 407.596C360.315 396.872 366.914 386.929 372.819 376.596Z" fill="#FAFAFA"/>
<path d="M358.926 344.685C355.669 350.329 352.022 355.756 349.808 361.965C349.808 368.521 349.808 375.12 349.808 381.676C352.847 371.907 356.928 362.573 363.137 354.323C368.043 347.811 373.557 341.602 373.904 332.876C374.208 325.538 371.343 318.809 366.914 313.295C367.218 317.984 366.958 322.716 366.002 327.318C364.743 333.57 362.095 339.258 358.926 344.685Z" fill="#FAFAFA"/>
<path d="M344.598 321.761C341.298 314.25 337.304 306.522 335.567 298.403C331.747 307.781 330.792 318.418 333.353 328.36C335.524 336.87 340.604 343.99 344.772 351.545C344.859 349.982 344.945 348.375 345.032 346.812C344.859 338.433 345.163 330.053 344.598 321.761Z" fill="#FAFAFA"/>
<path d="M323.454 379.418C326.537 384.672 329.75 389.838 332.832 395.092C337.391 402.907 341.298 411.069 344.815 419.405C344.815 412.806 344.815 406.206 344.815 399.607C343.252 392.4 341.515 385.193 339.084 378.246C336.826 371.734 333.874 365.482 329.967 359.881C326.233 354.41 321.457 349.634 318.722 343.513C317.636 341.038 316.942 338.52 316.551 336.002C312.86 341.993 312.253 349.678 313.555 356.581C315.162 364.874 319.243 372.341 323.454 379.418Z" fill="#FAFAFA"/>
<path d="M344.815 361.965C342.601 355.756 338.997 350.329 335.698 344.685C332.528 339.258 329.88 333.57 328.577 327.318C327.622 322.673 327.318 317.94 327.666 313.295C323.237 318.809 320.415 325.582 320.675 332.876C321.023 341.602 326.537 347.811 331.443 354.323C337.695 362.573 341.776 371.907 344.772 381.676C344.815 375.12 344.815 368.521 344.815 361.965Z" fill="#FAFAFA"/>
<path d="M347.29 265.927C342.948 273.699 338.997 282.035 339.171 291.196C339.345 300.183 343.6 308.736 347.29 316.898C351.024 308.736 355.279 300.183 355.409 291.196C355.626 282.035 351.675 273.699 347.29 265.927Z" fill="#FAFAFA"/>
<path d="M347.29 425.57C347.29 425.527 347.29 425.527 347.333 425.483C347.333 425.483 347.333 425.483 347.29 425.483H347.246C347.29 425.527 347.29 425.527 347.29 425.57Z" fill="#FAFAFA"/>
<path d="M431.649 361.965C429.434 355.756 425.831 350.329 422.531 344.685C419.362 339.258 416.713 333.57 415.411 327.318C414.455 322.673 414.152 317.94 414.499 313.295C410.07 318.809 407.248 325.582 407.509 332.876C407.856 341.602 413.37 347.811 418.276 354.323C424.528 362.573 428.609 371.907 431.605 381.676C431.649 375.12 431.649 368.521 431.649 361.965Z" fill="#FAFAFA"/>
<path d="M410.287 379.418C413.37 384.672 416.583 389.838 419.665 395.092C424.224 402.907 428.132 411.069 431.648 419.405C431.648 412.806 431.648 406.206 431.648 399.607C430.085 392.4 428.349 385.193 425.917 378.246C423.66 371.734 420.707 365.482 416.8 359.881C413.066 354.41 408.29 349.634 405.555 343.513C404.47 341.038 403.775 338.52 403.384 336.002C399.694 341.993 399.086 349.678 400.388 356.581C401.995 364.874 406.076 372.341 410.287 379.418Z" fill="#FAFAFA"/>
<path d="M445.759 344.685C442.503 350.329 438.856 355.756 436.641 361.965C436.641 368.521 436.641 375.12 436.641 381.676C439.681 371.907 443.762 362.573 449.97 354.323C454.876 347.811 460.39 341.602 460.738 332.876C461.041 325.538 458.176 318.809 453.747 313.295C454.051 317.984 453.791 322.716 452.836 327.318C451.577 333.57 448.928 339.258 445.759 344.685Z" fill="#FAFAFA"/>
<path d="M434.123 265.927C429.782 273.699 425.831 282.035 426.004 291.196C426.178 300.183 430.433 308.736 434.123 316.898C437.857 308.736 442.112 300.183 442.242 291.196C442.459 282.035 438.508 273.699 434.123 265.927Z" fill="#FAFAFA"/>
<path d="M448.06 328.317C450.578 318.374 449.666 307.781 445.846 298.359C444.109 306.478 440.115 314.206 436.815 321.718C436.294 330.01 436.598 338.39 436.424 346.726C436.511 348.289 436.598 349.895 436.685 351.458C440.853 343.947 445.889 336.827 448.06 328.317Z" fill="#FAFAFA"/>
<path d="M431.431 321.761C428.132 314.25 424.137 306.522 422.401 298.403C418.58 307.781 417.625 318.418 420.186 328.36C422.357 336.87 427.437 343.99 431.605 351.545C431.692 349.982 431.779 348.375 431.866 346.812C431.692 338.433 431.996 330.053 431.431 321.761Z" fill="#FAFAFA"/>
<path d="M434.123 425.57C434.123 425.527 434.123 425.527 434.167 425.483C434.167 425.483 434.167 425.483 434.123 425.483H434.08C434.123 425.527 434.123 425.527 434.123 425.57Z" fill="#FAFAFA"/>
<path d="M459.652 376.596C466.338 364.917 472.894 348.332 464.862 335.871C464.385 339.345 463.256 342.688 461.563 345.814C458.306 351.718 453.531 356.494 449.97 362.138C442.893 373.427 439.463 386.582 436.685 399.607C436.685 406.163 436.685 412.762 436.685 419.318C438.335 415.367 440.071 411.46 441.938 407.596C447.148 396.872 453.748 386.929 459.652 376.596Z" fill="#FAFAFA"/>
<path d="M503.633 359.881C499.9 354.41 495.124 349.634 492.388 343.513C491.303 341.038 490.608 338.52 490.218 336.002C486.527 341.993 485.919 349.678 487.222 356.581C488.785 364.874 492.866 372.341 497.077 379.418C500.16 384.672 503.373 389.838 506.455 395.092C511.014 402.907 514.922 411.069 518.438 419.405C518.438 412.806 518.438 406.206 518.438 399.607C516.875 392.4 515.139 385.193 512.707 378.246C510.493 371.777 507.541 365.525 503.633 359.881Z" fill="#FAFAFA"/>
<path d="M502.244 327.318C501.289 322.673 500.985 317.94 501.332 313.295C496.904 318.809 494.082 325.582 494.342 332.876C494.69 341.602 500.203 347.811 505.109 354.323C511.361 362.573 515.443 371.907 518.438 381.676C518.438 375.12 518.438 368.521 518.438 361.965C516.224 355.756 512.621 350.329 509.321 344.685C506.195 339.258 503.547 333.57 502.244 327.318Z" fill="#FAFAFA"/>
<path d="M507.02 328.317C509.191 336.826 514.27 343.947 518.438 351.501C518.525 349.938 518.612 348.332 518.699 346.769C518.525 338.433 518.829 330.053 518.308 321.761C515.008 314.25 511.014 306.522 509.277 298.403C505.413 307.781 504.502 318.374 507.02 328.317Z" fill="#FAFAFA"/>
<path d="M477.627 8.68333C477.627 8.63991 477.627 8.63991 477.583 8.5965C477.583 8.63991 477.583 8.63991 477.54 8.68333C477.583 8.68333 477.583 8.68333 477.627 8.68333Z" fill="#FAFAFA"/>
<path d="M450.187 88.3529C453.444 82.4482 458.219 77.6724 461.78 72.0283C468.857 60.7399 472.286 47.5847 475.065 34.5597C475.065 28.0038 475.065 21.4044 475.065 14.8485C473.415 18.7994 471.679 22.7069 469.812 26.571C464.558 37.2949 458.002 47.2373 452.098 57.5705C445.412 69.2496 438.856 85.8347 446.888 98.2953C447.365 94.822 448.451 91.4789 450.187 88.3529Z" fill="#FAFAFA"/>
<path d="M463.69 105.85C461.172 115.792 462.084 126.386 465.904 135.807C467.641 127.688 471.635 119.96 474.935 112.449C475.456 104.157 475.152 95.7772 475.326 87.4412C475.239 85.8782 475.152 84.2717 475.065 82.7087C470.897 90.2198 465.861 97.3402 463.69 105.85Z" fill="#FAFAFA"/>
<path d="M496.339 106.848C497.294 111.494 497.598 116.226 497.251 120.872C501.68 115.358 504.502 108.585 504.241 101.291C503.894 92.5643 498.38 86.3557 493.474 79.8432C487.222 71.5941 483.141 62.2595 480.145 52.4907C480.145 59.0466 480.145 65.646 480.145 72.2019C482.359 78.4105 485.963 83.8376 489.262 89.4817C492.388 94.9088 495.037 100.596 496.339 106.848Z" fill="#FAFAFA"/>
<path d="M489.306 135.807C493.126 126.429 494.082 115.792 491.52 105.85C489.349 97.3401 484.269 90.2198 480.101 82.6653C480.015 84.2283 479.928 85.8347 479.841 87.3977C480.015 95.7337 479.711 104.113 480.232 112.406C483.618 119.917 487.613 127.645 489.306 135.807Z" fill="#FAFAFA"/>
<path d="M465.991 89.4817C469.247 83.8376 472.894 78.4105 475.108 72.2019C475.108 65.646 475.108 59.0466 475.108 52.4907C472.069 62.2595 467.988 71.5941 461.78 79.8432C456.873 86.3557 451.36 92.5643 451.012 101.291C450.708 108.628 453.574 115.358 458.002 120.872C457.698 116.183 457.959 111.451 458.914 106.848C460.173 100.596 462.822 94.9088 465.991 89.4817Z" fill="#FAFAFA"/>
<path d="M469.465 142.971C469.291 152.132 473.242 160.468 477.583 168.24C481.925 160.468 485.876 152.132 485.702 142.971C485.529 133.984 481.274 125.431 477.583 117.268C473.893 125.431 469.638 133.984 469.465 142.971Z" fill="#FAFAFA"/>
<path d="M494.95 74.2859C498.684 79.7564 503.46 84.5322 506.195 90.654C507.28 93.1287 507.975 95.6469 508.366 98.1651C512.056 92.1736 512.664 84.4888 511.362 77.5856C509.799 69.293 505.717 61.8253 501.506 54.7484C498.423 49.495 495.21 44.3284 492.128 39.075C487.569 31.26 483.662 23.0977 480.145 14.7617C480.145 21.361 480.145 27.9603 480.145 34.5597C481.708 41.7668 483.445 48.974 485.876 55.9207C488.09 62.3897 491.042 68.6417 494.95 74.2859Z" fill="#FAFAFA"/>
<path d="M376.857 105.85C374.338 115.792 375.25 126.386 379.071 135.807C380.808 127.688 384.802 119.96 388.102 112.449C388.623 104.157 388.319 95.7772 388.492 87.4412C388.405 85.8782 388.319 84.2717 388.232 82.7087C384.064 90.2198 379.027 97.3402 376.857 105.85Z" fill="#FAFAFA"/>
<path d="M382.631 142.971C382.457 152.132 386.408 160.468 390.75 168.24C395.092 160.468 399.043 152.132 398.869 142.971C398.695 133.984 394.44 125.431 390.75 117.268C387.06 125.431 382.805 133.984 382.631 142.971Z" fill="#FAFAFA"/>
<path d="M363.354 88.3529C366.61 82.4482 371.386 77.6724 374.946 72.0283C382.023 60.7399 385.453 47.5847 388.232 34.5597C388.232 28.0038 388.232 21.4044 388.232 14.8485C386.582 18.7994 384.845 22.7069 382.978 26.571C377.725 37.2949 371.169 47.2373 365.264 57.5705C358.578 69.2496 352.022 85.8347 360.054 98.2953C360.532 94.822 361.617 91.4789 363.354 88.3529Z" fill="#FAFAFA"/>
<path d="M390.793 8.68333C390.793 8.63991 390.793 8.63991 390.75 8.5965C390.75 8.63991 390.75 8.63991 390.707 8.68333C390.75 8.68333 390.75 8.68333 390.793 8.68333Z" fill="#FAFAFA"/>
<path d="M402.472 135.807C406.293 126.429 407.248 115.792 404.687 105.85C402.516 97.3401 397.436 90.2198 393.268 82.6653C393.181 84.2283 393.095 85.8347 393.008 87.3977C393.181 95.7337 392.877 104.113 393.398 112.406C396.785 119.917 400.779 127.645 402.472 135.807Z" fill="#FAFAFA"/>
<path d="M379.158 89.4817C382.414 83.8376 386.061 78.4105 388.275 72.2019C388.275 65.646 388.275 59.0466 388.275 52.4907C385.236 62.2595 381.155 71.5941 374.946 79.8432C370.04 86.3557 364.526 92.5643 364.179 101.291C363.875 108.628 366.741 115.358 371.169 120.872C370.865 116.183 371.126 111.451 372.081 106.848C373.34 100.596 375.988 94.9088 379.158 89.4817Z" fill="#FAFAFA"/>
<path d="M409.506 106.848C410.461 111.494 410.765 116.226 410.418 120.872C414.846 115.358 417.668 108.585 417.408 101.291C417.06 92.5643 411.547 86.3557 406.64 79.8432C400.388 71.5941 396.307 62.2595 393.312 52.4907C393.312 59.0466 393.312 65.646 393.312 72.2019C395.526 78.4105 399.129 83.8376 402.429 89.4817C405.555 94.9088 408.203 100.596 409.506 106.848Z" fill="#FAFAFA"/>
<path d="M408.117 74.2859C411.85 79.7564 416.626 84.5322 419.362 90.654C420.447 93.1287 421.142 95.6469 421.532 98.1651C425.223 92.1736 425.831 84.4888 424.528 77.5856C422.965 69.293 418.884 61.8253 414.673 54.7484C411.59 49.495 408.377 44.3284 405.295 39.075C400.736 31.26 396.828 23.0977 393.312 14.7617C393.312 21.361 393.312 27.9603 393.312 34.5597C394.875 41.7668 396.611 48.974 399.043 55.9207C401.257 62.3897 404.209 68.6417 408.117 74.2859Z" fill="#FAFAFA"/>
<path d="M315.639 135.807C319.46 126.429 320.415 115.792 317.853 105.85C315.683 97.3401 310.603 90.2198 306.435 82.6653C306.348 84.2283 306.261 85.8347 306.174 87.3977C306.348 95.7337 306.044 104.113 306.565 112.406C309.952 119.917 313.946 127.645 315.639 135.807Z" fill="#FAFAFA"/>
<path d="M295.798 142.971C295.624 152.132 299.575 160.468 303.917 168.24C308.258 160.468 312.209 152.132 312.036 142.971C311.862 133.984 307.607 125.431 303.917 117.268C300.226 125.431 295.971 133.984 295.798 142.971Z" fill="#FAFAFA"/>
<path d="M292.324 89.4817C295.581 83.8376 299.228 78.4105 301.442 72.2019C301.442 65.646 301.442 59.0466 301.442 52.4907C298.403 62.2595 294.322 71.5941 288.113 79.8432C283.207 86.3557 277.693 92.5643 277.346 101.291C277.042 108.628 279.907 115.358 284.336 120.872C284.032 116.183 284.292 111.451 285.247 106.848C286.507 100.596 289.155 94.9088 292.324 89.4817Z" fill="#FAFAFA"/>
<path d="M321.283 74.2859C325.017 79.7564 329.793 84.5322 332.528 90.654C333.614 93.1287 334.308 95.6469 334.699 98.1651C338.389 92.1736 338.997 84.4888 337.695 77.5856C336.132 69.293 332.051 61.8253 327.839 54.7484C324.757 49.495 321.544 44.3284 318.461 39.075C313.903 31.26 309.995 23.0977 306.478 14.7617C306.478 21.361 306.478 27.9603 306.478 34.5597C308.041 41.7668 309.778 48.974 312.209 55.9207C314.423 62.3897 317.376 68.6417 321.283 74.2859Z" fill="#FAFAFA"/>
<path d="M322.673 106.848C323.628 111.494 323.932 116.226 323.584 120.872C328.013 115.358 330.835 108.585 330.575 101.291C330.227 92.5643 324.713 86.3557 319.807 79.8432C313.555 71.5941 309.474 62.2595 306.478 52.4907C306.478 59.0466 306.478 65.646 306.478 72.2019C308.693 78.4105 312.296 83.8376 315.596 89.4817C318.722 94.9088 321.37 100.596 322.673 106.848Z" fill="#FAFAFA"/>
<path d="M303.96 8.68333C303.96 8.63991 303.96 8.63991 303.917 8.5965C303.917 8.63991 303.917 8.63991 303.873 8.68333C303.917 8.68333 303.917 8.68333 303.96 8.68333Z" fill="#FAFAFA"/>
<path d="M276.521 88.3529C279.777 82.4482 284.553 77.6724 288.113 72.0283C295.19 60.7399 298.62 47.5847 301.399 34.5597C301.399 28.0038 301.399 21.4044 301.399 14.8485C299.749 18.7994 298.012 22.7069 296.145 26.571C290.892 37.2949 284.336 47.2373 278.431 57.5705C271.745 69.2496 265.189 85.8347 273.221 98.2953C273.699 94.822 274.784 91.4789 276.521 88.3529Z" fill="#FAFAFA"/>
<path d="M290.023 105.85C287.505 115.792 288.417 126.386 292.238 135.807C293.974 127.688 297.969 119.96 301.268 112.449C301.789 104.157 301.485 95.7772 301.659 87.4412C301.572 85.8782 301.485 84.2717 301.399 82.7087C297.231 90.2198 292.194 97.3402 290.023 105.85Z" fill="#FAFAFA"/>
<path d="M228.806 135.807C232.626 126.429 233.582 115.792 231.02 105.85C228.849 97.3401 223.769 90.2198 219.601 82.6653C219.515 84.2283 219.428 85.8347 219.341 87.3977C219.515 95.7337 219.211 104.113 219.732 112.406C223.118 119.917 227.113 127.645 228.806 135.807Z" fill="#FAFAFA"/>
<path d="M203.19 105.85C200.672 115.792 201.584 126.386 205.404 135.807C207.141 127.688 211.135 119.96 214.435 112.449C214.956 104.157 214.652 95.7772 214.826 87.4412C214.739 85.8782 214.652 84.2717 214.565 82.7087C210.397 90.2198 205.361 97.3402 203.19 105.85Z" fill="#FAFAFA"/>
<path d="M217.127 8.68333C217.127 8.63991 217.127 8.63991 217.083 8.5965C217.083 8.63991 217.083 8.63991 217.04 8.68333C217.083 8.68333 217.083 8.68333 217.127 8.68333Z" fill="#FAFAFA"/>
<path d="M189.687 88.3529C192.944 82.4482 197.719 77.6724 201.28 72.0283C208.357 60.7399 211.786 47.5847 214.565 34.5597C214.565 28.0038 214.565 21.4044 214.565 14.8485C212.915 18.7994 211.179 22.7069 209.312 26.571C204.058 37.2949 197.502 47.2373 191.598 57.5705C184.912 69.2496 178.356 85.8347 186.388 98.2953C186.865 94.822 187.951 91.4789 189.687 88.3529Z" fill="#FAFAFA"/>
<path d="M234.45 74.2859C238.184 79.7564 242.96 84.5322 245.695 90.654C246.78 93.1287 247.475 95.6469 247.866 98.1651C251.556 92.1736 252.164 84.4888 250.861 77.5856C249.298 69.293 245.217 61.8253 241.006 54.7484C237.923 49.495 234.71 44.3284 231.628 39.075C227.069 31.26 223.162 23.0977 219.645 14.7617C219.645 21.361 219.645 27.9603 219.645 34.5597C221.208 41.7668 222.945 48.974 225.376 55.9207C227.59 62.3897 230.542 68.6417 234.45 74.2859Z" fill="#FAFAFA"/>
<path d="M235.839 106.848C236.794 111.494 237.098 116.226 236.751 120.872C241.18 115.358 244.002 108.585 243.741 101.291C243.394 92.5643 237.88 86.3557 232.974 79.8432C226.722 71.5941 222.641 62.2595 219.645 52.4907C219.645 59.0466 219.645 65.646 219.645 72.2019C221.859 78.4105 225.463 83.8376 228.762 89.4817C231.888 94.9088 234.537 100.596 235.839 106.848Z" fill="#FAFAFA"/>
<path d="M208.964 142.971C208.791 152.132 212.742 160.468 217.083 168.24C221.425 160.468 225.376 152.132 225.202 142.971C225.029 133.984 220.774 125.431 217.083 117.268C213.393 125.431 209.138 133.984 208.964 142.971Z" fill="#FAFAFA"/>
<path d="M205.491 89.4817C208.747 83.8376 212.394 78.4105 214.609 72.2019C214.609 65.646 214.609 59.0466 214.609 52.4907C211.569 62.2595 207.488 71.5941 201.28 79.8432C196.374 86.3557 190.86 92.5643 190.512 101.291C190.208 108.628 193.074 115.358 197.502 120.872C197.198 116.183 197.459 111.451 198.414 106.848C199.673 100.596 202.322 94.9088 205.491 89.4817Z" fill="#FAFAFA"/>
<path d="M116.357 105.85C113.839 115.792 114.75 126.386 118.571 135.807C120.308 127.688 124.302 119.96 127.602 112.449C128.123 104.157 127.819 95.7772 127.992 87.4412C127.905 85.8782 127.819 84.2717 127.732 82.7087C123.564 90.2198 118.528 97.3402 116.357 105.85Z" fill="#FAFAFA"/>
<path d="M130.293 8.68333C130.293 8.63991 130.293 8.63991 130.25 8.5965C130.25 8.63991 130.25 8.63991 130.207 8.68333C130.25 8.68333 130.25 8.68333 130.293 8.68333Z" fill="#FAFAFA"/>
<path d="M149.006 106.848C149.961 111.494 150.265 116.226 149.918 120.872C154.346 115.358 157.168 108.585 156.908 101.291C156.56 92.5643 151.047 86.3557 146.14 79.8432C139.889 71.5941 135.807 62.2595 132.812 52.4907C132.812 59.0466 132.812 65.646 132.812 72.2019C135.026 78.4105 138.629 83.8376 141.929 89.4817C145.055 94.9088 147.703 100.596 149.006 106.848Z" fill="#FAFAFA"/>
<path d="M141.973 135.807C145.793 126.429 146.748 115.792 144.187 105.85C142.016 97.3401 136.936 90.2198 132.768 82.6653C132.681 84.2283 132.595 85.8347 132.508 87.3977C132.681 95.7337 132.377 104.113 132.898 112.406C136.285 119.917 140.279 127.645 141.973 135.807Z" fill="#FAFAFA"/>
<path d="M122.131 142.971C121.957 152.132 125.908 160.468 130.25 168.24C134.592 160.468 138.543 152.132 138.369 142.971C138.195 133.984 133.94 125.431 130.25 117.268C126.56 125.431 122.305 133.984 122.131 142.971Z" fill="#FAFAFA"/>
<path d="M147.617 74.2859C151.351 79.7564 156.126 84.5322 158.862 90.654C159.947 93.1287 160.642 95.6469 161.032 98.1651C164.723 92.1736 165.331 84.4888 164.028 77.5856C162.465 69.293 158.384 61.8253 154.173 54.7484C151.09 49.495 147.877 44.3284 144.795 39.075C140.236 31.26 136.328 23.0977 132.812 14.7617C132.812 21.361 132.812 27.9603 132.812 34.5597C134.375 41.7668 136.111 48.974 138.543 55.9207C140.757 62.3897 143.709 68.6417 147.617 74.2859Z" fill="#FAFAFA"/>
<path d="M118.658 89.4817C121.914 83.8376 125.561 78.4105 127.775 72.2019C127.775 65.646 127.775 59.0466 127.775 52.4907C124.736 62.2595 120.655 71.5941 114.446 79.8432C109.54 86.3557 104.026 92.5643 103.679 101.291C103.375 108.628 106.241 115.358 110.669 120.872C110.365 116.183 110.626 111.451 111.581 106.848C112.84 100.596 115.488 94.9088 118.658 89.4817Z" fill="#FAFAFA"/>
<path d="M102.854 88.3529C106.11 82.4482 110.886 77.6724 114.446 72.0283C121.523 60.7399 124.953 47.5847 127.732 34.5597C127.732 28.0038 127.732 21.4044 127.732 14.8485C126.082 18.7994 124.345 22.7069 122.478 26.571C117.225 37.2949 110.669 47.2373 104.764 57.5705C98.0782 69.2496 91.5223 85.8347 99.5544 98.2953C100.032 94.822 101.117 91.4789 102.854 88.3529Z" fill="#FAFAFA"/>
<path d="M29.5234 105.85C27.0052 115.792 27.9169 126.386 31.7376 135.807C33.4743 127.688 37.4686 119.96 40.7683 112.449C41.2893 104.157 40.9854 95.7772 41.159 87.4412C41.0722 85.8782 40.9854 84.2717 40.8985 82.7087C36.7305 90.2198 31.6942 97.3402 29.5234 105.85Z" fill="#FAFAFA"/>
<path d="M43.4601 8.68333C43.4601 8.63991 43.4601 8.63991 43.4166 8.5965C43.4166 8.63991 43.4166 8.63991 43.3732 8.68333C43.4166 8.68333 43.4166 8.68333 43.4601 8.68333Z" fill="#FAFAFA"/>
<path d="M55.1391 135.807C58.9598 126.429 59.915 115.792 57.3534 105.85C55.1826 97.3401 50.1028 90.2198 45.9348 82.6653C45.848 84.2283 45.7611 85.8347 45.6743 87.3977C45.848 95.7337 45.5441 104.113 46.0651 112.406C49.4516 119.917 53.4459 127.645 55.1391 135.807Z" fill="#FAFAFA"/>
<path d="M62.1726 106.848C63.1278 111.494 63.4317 116.226 63.0844 120.872C67.5129 115.358 70.335 108.585 70.0745 101.291C69.7271 92.5643 64.2132 86.3557 59.3071 79.8432C53.0551 71.5941 48.974 62.2595 45.9782 52.4907C45.9782 59.0466 45.9782 65.646 45.9782 72.2019C48.1925 78.4105 51.796 83.8376 55.0957 89.4817C58.2217 94.9088 60.8701 100.596 62.1726 106.848Z" fill="#FAFAFA"/>
<path d="M16.0208 88.3529C19.277 82.4482 24.0528 77.6724 27.613 72.0283C34.6899 60.7399 38.1198 47.5847 40.8985 34.5597C40.8985 28.0038 40.8985 21.4044 40.8985 14.8485C39.2487 18.7994 37.512 22.7069 35.6451 26.571C30.3917 37.2949 23.8358 47.2373 17.9311 57.5705C11.2449 69.2496 4.68901 85.8347 12.7211 98.2953C13.1987 94.822 14.2841 91.4789 16.0208 88.3529Z" fill="#FAFAFA"/>
<path d="M35.2978 142.971C35.1241 152.132 39.075 160.468 43.4167 168.24C47.7583 160.468 51.7093 152.132 51.5356 142.971C51.3619 133.984 47.1071 125.431 43.4167 117.268C39.7263 125.431 35.4714 133.984 35.2978 142.971Z" fill="#FAFAFA"/>
<path d="M60.7833 74.2859C64.5171 79.7564 69.293 84.5322 72.0282 90.654C73.1136 93.1287 73.8083 95.6469 74.199 98.1651C77.8895 92.1736 78.4973 84.4888 77.1948 77.5856C75.6318 69.293 71.5506 61.8253 67.3392 54.7484C64.2566 49.495 61.0438 44.3284 57.9612 39.075C53.4025 31.26 49.495 23.0977 45.9782 14.7617C45.9782 21.361 45.9782 27.9603 45.9782 34.5597C47.5412 41.7668 49.2779 48.974 51.7092 55.9207C53.9235 62.3897 56.8758 68.6417 60.7833 74.2859Z" fill="#FAFAFA"/>
<path d="M40.9419 72.2019C40.9419 65.646 40.9419 59.0466 40.9419 52.4907C37.9027 62.2595 33.8216 71.5941 27.613 79.8432C22.7069 86.3557 17.193 92.5643 16.8456 101.291C16.5417 108.628 19.4072 115.358 23.8357 120.872C23.5318 116.183 23.7923 111.451 24.7475 106.848C26.0066 100.596 28.6984 94.9088 31.8678 89.4817C35.1241 83.8376 38.7276 78.4105 40.9419 72.2019Z" fill="#FAFAFA"/>
<path d="M27.3959 519.48C27.1354 520.001 26.8315 520.479 26.5276 521H34.3426C34.0821 517.006 32.9967 513.098 30.739 509.581C30.218 513.011 29.1326 516.354 27.3959 519.48Z" fill="#FAFAFA"/>
<path d="M19.6243 486.961C19.9282 491.65 19.6677 496.383 18.7126 500.985C17.4535 507.237 14.7617 512.925 11.5922 518.352C11.0712 519.22 10.5502 520.088 10.0292 521H21.0571C24.0094 516.702 26.3539 512.143 26.571 506.542C26.8749 499.205 24.0528 492.475 19.6243 486.961Z" fill="#FAFAFA"/>
<path d="M11.679 472.026C9.94238 480.145 5.94805 487.873 2.64838 495.384C2.12738 503.677 2.4313 512.056 2.25763 520.392C2.25763 520.566 2.25763 520.783 2.30105 520.957H4.90605C8.46621 514.878 12.1566 508.887 13.9367 501.94C16.4549 492.041 15.4997 481.447 11.679 472.026Z" fill="#FAFAFA"/>
<path d="M0 439.637V490.522C3.73383 482.359 7.94525 473.85 8.11892 464.862C8.29258 455.745 4.34167 447.409 0 439.637Z" fill="#FAFAFA"/>
<path d="M106.458 486.961C106.762 491.65 106.501 496.383 105.546 500.985C104.287 507.237 101.595 512.925 98.4256 518.352C97.9046 519.22 97.3836 520.088 96.8626 521H107.89C110.843 516.702 113.187 512.143 113.404 506.542C113.708 499.205 110.886 492.475 106.458 486.961Z" fill="#FAFAFA"/>
<path d="M98.5124 472.026C96.7758 480.145 92.7814 487.873 89.4818 495.384C88.9608 503.677 89.2647 512.056 89.091 520.392C89.091 520.566 89.091 520.783 89.1344 520.957H91.7394C95.2996 514.878 98.99 508.887 100.77 501.94C103.288 492.041 102.333 481.447 98.5124 472.026Z" fill="#FAFAFA"/>
<path d="M114.229 519.48C113.969 520.001 113.665 520.479 113.361 521H121.176C120.915 517.006 119.83 513.098 117.572 509.581C117.051 513.011 115.966 516.354 114.229 519.48Z" fill="#FAFAFA"/>
<path d="M68.0773 500.985C67.1222 496.339 66.8182 491.607 67.1656 486.961C62.7371 492.475 59.915 499.248 60.1755 506.542C60.3926 512.143 62.7371 516.702 65.6894 521H76.7172C76.1962 520.132 75.6752 519.263 75.1542 518.352C72.0282 512.925 69.3798 507.237 68.0773 500.985Z" fill="#FAFAFA"/>
<path d="M56.0509 509.668C53.9669 513.055 52.8815 517.006 52.5342 521H60.2623C59.5243 519.784 58.8296 518.482 58.2218 517.179C57.1363 514.705 56.4417 512.186 56.0509 509.668Z" fill="#FAFAFA"/>
<path d="M84.0981 495.428C80.7984 487.917 76.8041 480.188 75.0674 472.069C71.2467 481.447 70.2916 492.085 72.8531 502.027C74.6332 508.974 78.3236 514.965 81.8838 521.043H84.4888C84.4888 520.87 84.4888 520.653 84.5322 520.479C84.3586 512.1 84.6625 503.72 84.0981 495.428Z" fill="#FAFAFA"/>
<path d="M78.671 464.862C78.8447 473.849 83.0995 482.403 86.79 490.565C90.5238 482.403 94.7786 473.849 94.9089 464.862C95.0825 455.701 91.1316 447.365 86.79 439.594C82.4483 447.365 78.4974 455.701 78.671 464.862Z" fill="#FAFAFA"/>
<path d="M154.911 500.985C153.956 496.339 153.652 491.607 153.999 486.961C149.57 492.475 146.748 499.248 147.009 506.542C147.226 512.143 149.57 516.702 152.523 521H163.551C163.03 520.132 162.509 519.263 161.988 518.352C158.862 512.925 156.213 507.237 154.911 500.985Z" fill="#FAFAFA"/>
<path d="M193.291 486.961C193.595 491.65 193.334 496.383 192.379 500.985C191.12 507.237 188.428 512.925 185.259 518.352C184.738 519.22 184.217 520.088 183.696 521H194.724C197.676 516.702 200.021 512.143 200.238 506.542C200.542 499.205 197.72 492.475 193.291 486.961Z" fill="#FAFAFA"/>
<path d="M142.884 509.668C140.8 513.055 139.715 517.006 139.367 521H147.096C146.358 519.784 145.663 518.482 145.055 517.179C143.97 514.705 143.275 512.186 142.884 509.668Z" fill="#FAFAFA"/>
<path d="M201.063 519.48C200.802 520.001 200.498 520.479 200.194 521H208.009C207.749 517.006 206.663 513.098 204.406 509.581C203.885 513.011 202.799 516.354 201.063 519.48Z" fill="#FAFAFA"/>
<path d="M185.346 472.026C183.609 480.145 179.615 487.873 176.315 495.384C175.794 503.677 176.098 512.056 175.924 520.392C175.924 520.566 175.924 520.783 175.968 520.957H178.573C182.133 514.878 185.823 508.887 187.603 501.94C190.122 492.041 189.166 481.447 185.346 472.026Z" fill="#FAFAFA"/>
<path d="M165.504 464.862C165.678 473.849 169.933 482.403 173.623 490.565C177.357 482.403 181.612 473.849 181.742 464.862C181.916 455.701 177.965 447.365 173.623 439.594C169.282 447.365 165.331 455.701 165.504 464.862Z" fill="#FAFAFA"/>
<path d="M170.931 495.428C167.632 487.917 163.637 480.188 161.901 472.069C158.08 481.447 157.125 492.085 159.686 502.027C161.467 508.974 165.157 514.965 168.717 521.043H171.322C171.322 520.87 171.322 520.653 171.366 520.479C171.192 512.1 171.496 503.72 170.931 495.428Z" fill="#FAFAFA"/>
<path d="M272.179 472.026C270.442 480.145 266.448 487.873 263.148 495.384C262.627 503.677 262.931 512.056 262.758 520.392C262.758 520.566 262.758 520.783 262.801 520.957H265.406C268.966 514.878 272.657 508.887 274.437 501.94C276.955 492.041 276 481.447 272.179 472.026Z" fill="#FAFAFA"/>
<path d="M287.896 519.48C287.635 520.001 287.332 520.479 287.028 521H294.843C294.582 517.006 293.497 513.098 291.239 509.581C290.718 513.011 289.633 516.354 287.896 519.48Z" fill="#FAFAFA"/>
<path d="M257.765 495.428C254.465 487.917 250.471 480.188 248.734 472.069C244.913 481.447 243.958 492.085 246.52 502.027C248.3 508.974 251.99 514.965 255.55 521.043H258.155C258.155 520.87 258.155 520.653 258.199 520.479C258.025 512.1 258.329 503.72 257.765 495.428Z" fill="#FAFAFA"/>
<path d="M280.124 486.961C280.428 491.65 280.168 496.383 279.213 500.985C277.953 507.237 275.262 512.925 272.092 518.352C271.571 519.22 271.05 520.088 270.529 521H281.557C284.509 516.702 286.854 512.143 287.071 506.542C287.375 499.205 284.553 492.475 280.124 486.961Z" fill="#FAFAFA"/>
<path d="M229.718 509.668C227.634 513.055 226.548 517.006 226.201 521H233.929C233.191 519.784 232.496 518.482 231.888 517.179C230.803 514.705 230.108 512.186 229.718 509.668Z" fill="#FAFAFA"/>
<path d="M252.338 464.862C252.511 473.849 256.766 482.403 260.457 490.565C264.19 482.403 268.445 473.849 268.576 464.862C268.749 455.701 264.798 447.365 260.457 439.594C256.115 447.365 252.164 455.701 252.338 464.862Z" fill="#FAFAFA"/>
<path d="M241.744 500.985C240.789 496.339 240.485 491.607 240.832 486.961C236.404 492.475 233.582 499.248 233.842 506.542C234.059 512.143 236.404 516.702 239.356 521H250.384C249.863 520.132 249.342 519.263 248.821 518.352C245.695 512.925 243.047 507.237 241.744 500.985Z" fill="#FAFAFA"/>
<path d="M344.598 495.428C341.298 487.917 337.304 480.188 335.567 472.069C331.747 481.447 330.792 492.085 333.353 502.027C335.133 508.974 338.824 514.965 342.384 521.043H344.989C344.989 520.87 344.989 520.653 345.032 520.479C344.859 512.1 345.163 503.72 344.598 495.428Z" fill="#FAFAFA"/>
<path d="M359.012 472.026C357.276 480.145 353.281 487.873 349.982 495.384C349.461 503.677 349.765 512.056 349.591 520.392C349.591 520.566 349.591 520.783 349.634 520.957H352.239C355.8 514.878 359.49 508.887 361.27 501.94C363.788 492.041 362.833 481.447 359.012 472.026Z" fill="#FAFAFA"/>
<path d="M339.171 464.862C339.345 473.849 343.6 482.403 347.29 490.565C351.024 482.403 355.279 473.849 355.409 464.862C355.583 455.701 351.632 447.365 347.29 439.594C342.948 447.365 338.997 455.701 339.171 464.862Z" fill="#FAFAFA"/>
<path d="M316.551 509.668C314.467 513.055 313.382 517.006 313.034 521H320.762C320.024 519.784 319.33 518.482 318.722 517.179C317.636 514.705 316.942 512.186 316.551 509.668Z" fill="#FAFAFA"/>
<path d="M328.577 500.985C327.622 496.339 327.318 491.607 327.666 486.961C323.237 492.475 320.415 499.248 320.675 506.542C320.893 512.143 323.237 516.702 326.189 521H337.217C336.696 520.132 336.175 519.263 335.654 518.352C332.528 512.925 329.88 507.237 328.577 500.985Z" fill="#FAFAFA"/>
<path d="M374.729 519.48C374.469 520.001 374.165 520.479 373.861 521H381.676C381.415 517.006 380.33 513.098 378.072 509.581C377.551 513.011 376.466 516.354 374.729 519.48Z" fill="#FAFAFA"/>
<path d="M366.958 486.961C367.262 491.65 367.001 496.383 366.046 500.985C364.787 507.237 362.095 512.925 358.926 518.352C358.405 519.22 357.884 520.088 357.363 521H368.39C371.343 516.702 373.687 512.143 373.904 506.542C374.208 499.205 371.386 492.475 366.958 486.961Z" fill="#FAFAFA"/>
<path d="M403.384 509.668C401.3 513.055 400.215 517.006 399.867 521H407.596C406.857 519.784 406.163 518.482 405.555 517.179C404.47 514.705 403.775 512.186 403.384 509.668Z" fill="#FAFAFA"/>
<path d="M431.431 495.428C428.132 487.917 424.137 480.188 422.401 472.069C418.58 481.447 417.625 492.085 420.186 502.027C421.967 508.974 425.657 514.965 429.217 521.043H431.822C431.822 520.87 431.822 520.653 431.866 520.479C431.692 512.1 431.996 503.72 431.431 495.428Z" fill="#FAFAFA"/>
<path d="M445.846 472.026C444.109 480.145 440.115 487.873 436.815 495.384C436.294 503.677 436.598 512.056 436.424 520.392C436.424 520.566 436.424 520.783 436.468 520.957H439.073C442.633 514.878 446.323 508.887 448.103 501.94C450.621 492.041 449.666 481.447 445.846 472.026Z" fill="#FAFAFA"/>
<path d="M426.004 464.862C426.178 473.849 430.433 482.403 434.123 490.565C437.857 482.403 442.112 473.849 442.242 464.862C442.416 455.701 438.465 447.365 434.123 439.594C429.782 447.365 425.831 455.701 426.004 464.862Z" fill="#FAFAFA"/>
<path d="M415.411 500.985C414.455 496.339 414.152 491.607 414.499 486.961C410.07 492.475 407.248 499.248 407.509 506.542C407.726 512.143 410.07 516.702 413.023 521H424.051C423.53 520.132 423.009 519.263 422.488 518.352C419.362 512.925 416.713 507.237 415.411 500.985Z" fill="#FAFAFA"/>
<path d="M461.563 519.48C461.302 520.001 460.998 520.479 460.694 521H468.509C468.249 517.006 467.163 513.098 464.906 509.581C464.385 513.011 463.299 516.354 461.563 519.48Z" fill="#FAFAFA"/>
<path d="M453.791 486.961C454.095 491.65 453.834 496.383 452.879 500.985C451.62 507.237 448.928 512.925 445.759 518.352C445.238 519.22 444.717 520.088 444.196 521H455.224C458.176 516.702 460.521 512.143 460.738 506.542C461.042 499.205 458.22 492.475 453.791 486.961Z" fill="#FAFAFA"/>
<path d="M502.244 500.985C501.289 496.339 500.985 491.607 501.332 486.961C496.904 492.475 494.082 499.248 494.342 506.542C494.559 512.143 496.904 516.702 499.856 521H510.884C510.363 520.132 509.842 519.263 509.321 518.352C506.195 512.925 503.547 507.237 502.244 500.985Z" fill="#FAFAFA"/>
<path d="M490.218 509.668C488.134 513.055 487.048 517.006 486.701 521H494.429C493.691 519.784 492.996 518.482 492.388 517.179C491.303 514.705 490.608 512.186 490.218 509.668Z" fill="#FAFAFA"/>
<path d="M518.265 495.428C514.965 487.917 510.971 480.188 509.234 472.069C505.413 481.447 504.458 492.085 507.02 502.027C508.8 508.974 512.49 514.965 516.05 521.043H518.655C518.655 520.87 518.655 520.653 518.699 520.479C518.525 512.1 518.829 503.72 518.265 495.428Z" fill="#FAFAFA"/>
</g>
<defs>
<clipPath id="clip0">
<rect width="521" height="521" fill="white"/>
</clipPath>
</defs>
</svg>
